<mxfile host="Electron" modified="2024-01-12T07:24:53.476Z" agent="Mozilla/5.0 (Macintosh; Intel Mac OS X 10_15_7) AppleWebKit/537.36 (KHTML, like Gecko) draw.io/22.1.11 Chrome/114.0.5735.289 Electron/25.9.8 Safari/537.36" etag="d7wyFiB5VLubFs0UypRo" version="22.1.11" type="device">
  <diagram id="-Q11ldrP1Bci3HnGlJ7T" name="第 1 页">
    <mxGraphModel dx="1468" dy="949" grid="1" gridSize="10" guides="1" tooltips="1" connect="1" arrows="1" fold="1" page="1" pageScale="1" pageWidth="827" pageHeight="1169" math="0" shadow="0">
      <root>
        <mxCell id="0" />
        <mxCell id="1" parent="0" />
        <mxCell id="I-8IS1atBOsU5CCnnGh7-1" value="" style="rounded=0;whiteSpace=wrap;html=1;strokeColor=none;fillColor=none;" vertex="1" parent="1">
          <mxGeometry x="20" y="100" width="780" height="500" as="geometry" />
        </mxCell>
        <mxCell id="lmZ7Z838884bCMlXKgRS-1" value="" style="shape=image;verticalLabelPosition=bottom;labelBackgroundColor=default;verticalAlign=top;aspect=fixed;imageAspect=0;image=data:image/png,iVBORw0KGgoAAAANSUhEUgAAAsoAAACRCAYAAADaQJ5dAAAAAXNSR0IArs4c6QAAAHhlWElmTU0AKgAAAAgABAEaAAUAAAABAAAAPgEbAAUAAAABAAAARgEoAAMAAAABAAIAAIdpAAQAAAABAAAATgAAAAAAAACWAAAAAQAAAJYAAAABAAOgAQADAAAAAQABAACgAgAEAAAAAQAAAsqgAwAEAAAAAQAAAJEAAAAAzVNEtQAAAAlwSFlzAAAXEgAAFxIBZ5/SUgAAQABJREFUeAHtfQd4HNX1/VWxLLnKvTdMcQHccQWb3juhJARs00kg/4RfaKGYkIRAIBAgEKpNx/RuwBhsbAM2bmAbG0yRey+SbTWr/O950lvNrmZXK2m1mlmd+33SzLx5bc47u3vnvvvuE6EQASJABIgAESACRIAIEAEiUAmBpEoptUwYP378uOTk5HGoprS0tKce7J+eUjyMQJb2DX+SlJSUVVJSMnPKlCkzcU2pjAB5XhkTH6VkaV/xR64DhCqEXK8CIG/fztLu4Y9cBwhVCLleBUDevp2l3cNfzLkeE0V54sSJ47VvPVUxvh2dpCQMAqv1SWbquKrOTKWZPE8YXrs9CLnuQIVcd4CReKfkumNMyXUHGIl3GhOuJ9UGFxBMlajJzjpS8gskbdduSdUjzpPz8vW80JmF5x5EoCg9TUoy0k3PitMbS0FmcynMbOHs6Wq1NE96+umnpzgTG8I5eZ5Yo0yuhx9Pcj08Nn68Q66HHzVyPTw2frxTl1yvkaKM6QlVmqYomD0AKBTiJpu2ScbGreYcaRT/IwCFubBVC8nt2NapNK/Wl6PxDcHCTJ77n8PRPgG5zu/0aLni93zkOrnudw5H2/9Ycb3aivKECRNmaifHoqNQkJtnrTcKMq4piYtAXqd2oQrzrMmTJ49L1CcmzxN1ZKt+LnKd3+lVsyQxcpDr5HpiMLnqp6gN16NWlEOta5krf6aCXPXYJFQO+3a2u2cXwbkKrMvj1LqclSgPSp4nykjW7jnI9drhx9L+QYBc989Ysae1Q6CmXE+Jptly5eEzzZuZtitH2n+5RBrtyY2mKPMkEALJRcVm3NO37ZR9zZtAWc7UN62zBw8evHPx4sVL/P6o5LnfRzB2/SfXY4cla/I2AuS6t8eHvYsdAjXlepWKskN50EV6OdJm8YrY9Zo1+RIBkK2xLtgsaZQqRc2btpSSkqGDhwzxtbJMnvuSinXeaXK9ziFmAx5BgFz3yECwG3WOQHW5HlFRdioPGbpYr/XSH+r8AdiAPxAA0WBZ1kWduuCvZQsNmj1k4MCBi5csWZLljyeo6CV5XoEFzyojQK5XxoQpiYkAuZ6Y48qnqoxAdbieXLl4UModuIIlOXPFT0E3eEEEgECzX9YJXqJUY+6GSCiqdPb0ITLkuQ8HLd5dJtfjjTjbqy8EyPX6Qp7txhuBaLgeVlHGqn9VfI6gu0W8h81/7TVXZRk8UelRHjbQNw9BnvtmqDzRUXLdE8PATsQBAXI9DiCzCU8gUBXXXV0vEIhbe/8HPAEW7lGIQCQEMIUBn+X8dq2kNDW1py7uW+2HxX3keaRR5T03BMh1N1SYlogIkOuJOKp8JjcEquK6q0VZQ35NQmUIAUchAtEgYGNqI6/lTzTl6jOP7Sd5Xp+j4L+2yXX/jRl7XDMEyPWa4cZS/kMgEtcrWZTVyjZJH/F0FMpcQUXZf8Ndfz3GW5kNG6dW5SS1Ks+sv95Ebpk8j4wP70ZGgFyPjA/vJg4C5HrijCWfJDIC4bheyaKsVrbbUVVLLt6LjCjvVkIAL1dwjIcoj8abE4/+I889OjA+6Ra57pOBYjdrjQC5XmsIWYFPEAjH9SBFudxn02xNDZ9TChGoLgLgjV3Yh7Br1S0fj/zkeTxQTvw2yPXEH2M+YRkC5DqZ0FAQcON6kKKsVrZxAKN51vqGggmfsw4QaIJwcSoaAWO8OfHYP/LcYwPi4+6Q6z4ePHa9WgiQ69WCi5l9jEAo14MUZX2ui/FsaTtNqC8fPya7Xp8IBPhTWnpkffYjQtvkeQRweCt6BMj16LFiTn8jQK77e/zY++gRCOV6QFG20+Tw0cAfhQjUFAHwx7hfJCV1t7yqaV2xLmf7Q57HGtmGWZ8fuI7PIr/TGyY/Y/nU5Hos0WRdXkYglOsBRTk5OXkcOm5NzjinEIGaImB55DX3C/K8piPKcuEQ8DrX4XNHIQKxQIBcjwWKrMMPCDi5HlCU1W+zJzpPy4MfhpB9rCkC5HlNkWM5vyFArvttxNjfmiJArtcUOZaLBoFUR6aeOE/Oy3ck1d1po9aZkpyeXtFAaamUFhdLUfZuKSmg60cFMNU7S2neTNK7dJJGbVrJvu07pWDDJinKib9FycGjntV7gjrPbfrj6F+dN0iu1x3Ejdq1kbTWuiOkNrFv2w7l/I66ayxMzQ4u9QyTpb6STX8c/avzfpDrsYc4pWkTSe/eVVJbNNfKS81vZMHmLVK0Mzv2jVVRo4NLPavIGu/bpj+O/tVp+0mpqZKm3z26Yr2iHdVhilV/KsrWNV56TqkmAikpkt61s6Sp7pLcJENKcvNk385dkrdaQ86WlFSzstpnd3CpZyVFOTW/sPYtVFFD074HSsdzTg2bq2DTFsn+erHsXrIsbB7eCEYgOSNdOp13hqR36xJ8Q6/y122QjS+9ISVx9D138KhnpQ7Vb4Lpj6N/ddobcr1u4MUPVeujxkjLwwYjuoppZM9338vm19+rmwYj1OrgUs8I2erjlumPo3912gdyPbbwNmrbWtoeO04yevcMcNy2oBZU8/u47aNPpXRfkU2u86ODSz3rvLHqNWD64+hf9UpXM3fXSy8sU5RdypUUFsreFatkx8y59WKkcumS55MyxwyXzBFDJUX1mFDZtytbtr73seT9sib0Vp1eO7jUM+B6UacthlSON4ZI0rhje2l/6vHS7pTjImXjvXIEUvTtq8vF57sqyciCt7TOF50nSWmNiFmcESDXYw94Rq/u0u3K8ZI5fEglBSL2rbHGaBEg16NFKrp8+A1ssn8vV47j5bDFoEOkjSrSlPgjgBnbcJKclibNB/SXrpf9VtI6tAuXjenlCOD7vM2RY1yVZGRplNlSOpx9qmC2vL7EqSj3QCfqw0c5L2uN7F31sxTt3hOEA74IMnqZbgWl8yIYgRZDBgS93cIiv2vewqC32cb6gW3a54DggnV45eCR1waw3ngOuMn12pEO1rXOF/5KGrVqWbuKYliaXHcHk1x3xyXa1OTGjQNZ4Y5YnJsbuLYnLQYfKphdiZeQ65WRLtqzV/Z+/6Pkr10vpQ4XARiw2p14dOUCTAlCIKlRhQEvb806o7vs/eGnoDywNDc9YL+gtLq+cHI9fp+wCE+1Rc3q1t+q/ZknS/OD+wRyNz2ot5rcV0ty4zRJbZVpfH8Kt2wTvLU1OXA/8yWBL2Rb3hYE+PAhwl9pUZEUGv/Fnebc5gk9wgcsrX1b8+ZSrOTPX7Pe1V8aPmN4U8Sbzj71Eyvcuk2QP5xgCi1N/1KaNJHi/Pwyv2EN2RQq0eYLLdd84MGBpEL10Vw/+SXznDkLvpFuV08IWCSa9TtI9nz7XSAvT+KPALlehnlNuV7mp1lWB1yKMFtC8SYC5HrZuNSU61DASvT3AlP4eVlrTWWtjhgprceOCgw4LMv4jSvYuDmQxpP4IpD382rZ8vY002jjTh3M7G1y+ewtXCHhFlmivsuwQkNvgUEQ+kJjXUsEA1bR3lzJVUU7VFIzW+jYqj7SrKkUqfsBdJjiEGOis4z1mwbfINCTCjdvdWYpO09OLtONVNeBL3Xh1u2mbtE1Ym6CmWg8VyPoXyrQefDdG5o/2nyhbWAt1W7VS7LnLwricVt9yWg5dGAgu32uQEIcTzyhKDufd9eXXwcpyiAJpN3Jx0qz/mUK9M4588zURmq5KR7W6E0vv2nyQUFue9w4aa7WaOu7aG7ov5LCfbJ9xueSs2CJTTJHmPTbq5sHprmcUrJvn35JfSHZXy0wyckZGZrvWFfL7J7l38vWD6YH+QGbek87QZrsV9moCovv9o9nmnqjzefsmz03BFaF3cqepSsCLwP7duhivvUbA8oEpjgo3kGAXA8eC+dnIvhOxdW+Hbq4Q60O2fMXqx/gD9Lr+mvMS3RFDp55EQFyPXhUouH6xudfDS6kV9nzFgUpypUyMKFeEcALS97qtUHWz1TVYUrVSNZdjVYQ/C7v/fEXydT1FVbWPfl8QEnE7zTcblJbtrC3A0e8MG1576NKhkEYy+CGk5JeMQuBQujPxlfeluKcsgX9WEcAXSrUFxizFVvem15JYcdsdWsXtwjkX/f0i4F+RJsv8CCOEyzAti8ajmQTjMB5Hc81Vs52ce50vQi9Vy/XJQUhiwntVEZSRVdbqeO3VZJNJ8tXmCY1SpVul/9WzHSUczVq+ZPgLQ9TIU6/rmQlFnyJQpVkFElWpbvVqGGmNN6Wul12oauSjAzN+h9kpoRN5vJ/WLDopiTjdoauYrYSbT6b33kM9dvJ1ygXTsFbpZVknaKL5zSdbZdHdwTI9WBcnJ+J4DsVV/n6I7ThmalGSa5I5ZnXESDXg0coGq4Hlyi7Sm2JyBcVgkV9+xBlgeIZBErVwOaU0pJSVSYqomM00ig9TiUZeTGOEOgunX5zjquSjPsZPbupjnORsTLjGoKFcFCsQ5Vk3IMhzbosYOEzdI1QJRn5MNvd6dzTdZa+Ny6NwM0NVt1w+dPaatQPlWjzmcxR/oNe03LYoKDcJvpFUEr8LjxnUW4xsH/Q0xdsrlD0gm7oRcAfqJxkmaMOE5DQSqGa9HPV1yW1RTNpqm4H1sLccthAyV6w2LwNtdJprFR1pbCCMvgxhgsGpnUtgVuNPixAXqTtnP2VeeMxftRKXoghpbazV1ff423QOS2866uF5scd0y94+4M7CCTafCazyz+4gTgFIVWcguk7pyDsin27dKbzPP4IkOvun4n4jwRbrGsEyPXYcB2WO6fgtyr0O995n+fxRQB+yRmOGeQS/Z2HBTmc2wDuw4AFFwi4aLQ++vCAngI9Y8+ylVK8d680VQXW6jZw32g9brSJBAGFEoZDKyiDmbYSjYTS9KD9y5RnU3eGQNexUqAuGTs//1Iad+6gyvmAgDLc5qjDjc6EfJjBtzoTXsa2ffCJhvAtUaNiTzOjby280eazbbsdk/SZYMRM0hBx8CJI79IxyKi3e9kKo5e5lY1HmicU5Wb9+kiphlRJ795F4EdrBYOe93OWvQw6wnK6SUOeIfaywNqsFuTMkUMDeeBHs/6pFwI+xpk6BdHmmLHmPgYD7eyaO9+8wdlC8O/FFEipumhAmijR7KIhvI1Z2b14qeyc9YW53LN8pfT68+90+rdsyqOJTpsYRdnEvLQl4C+01fj1wLdn9zfLAzecPpdIDJcvUCDkxKnk4xbcRYJEMXRKUkqFZd6ZzvP4IECuV+BcXa5XlOSZHxAg1ytGKRZchyEGFkcrxmCjboiU+kUASjCMXzB6tdBjimN/CPgvQwkOFYwdQp4hBC7KIfYyDH3Osts/+syEyUVZuJt205lv5IU0P6SvKd/80H5m5tsk6j8oszmLvjWX29VVFDoR3DUQhcNanKEzwVUV+yvsXblK4D9tdSP4u0P5hi80DIxWoBTn6Zot6GlYM7Z9+ix7K+p8gQIuJ9Cz8CxuAuMlXGDrUzyhKLfReKhusuuL+QG/Hed9rADeBL8bh/U0Vf104SphJWfxtwElGWnZC78xvjZQkiFYiIdpLPM2Z1LEEMwqyUiyDvYgDt7irKSoEgxSW3F+DhBwHxK68UF79VVudkg/0wbe+OyHJ9p8tq2qjknqqB8kzs7pjUr3gzLzoq4RINcrEA73majIwTM/I0CuV4xebbkOK1tHnRp3fn9jrU28Y8tWPBHPLALpnTsK/kKlOC9Ptr4/PTTZXGfrDLPdJ8JsUKKpUFKtQMfJLld4kQZldreuP7LWY7hQQi+xVmbkwWYnOap4WynR9nd8OttcIpiAU5od3DdwiXC8ToHSCkUZi+ykPOoYFh32uOYSUz8UcWfwhGjzOdsIPa/kmuXIgLCTcKnd/Nq7kvtTluNO/E49oSiHPm6xrgLdodMCOarcusk+jRgRuvrTSRiUwS5dToECXKxvRdYCC5eFSmVADBexyq+91VQX/eHPTaxlGUo8COW0AMDajD9MxWx+433zEhBtPre2kIYPh1MwhREkIYpz8Z7KIYaC8vMirgiQ65U/E3EdADYWNwTI9ZpxHd/pnc4/s3xnvrLhwoLW7Z98HrexY0PVQwDhzRA4IFw0rPx16ytV6NQzoOOERpUI3WEXbh7OeM6IjBFuBztn3TAWtlEXj3BidZhsDThgLNblOgX8mFupgRAbg2Ax9fZP1Kqshrho84VrD+noe9b9/zMvgtDNMHuSOXq4GjTLLOgwVLZTY+Oah54MuK1Gqi/W9zyhKJs3FH2DwZsVtiws2LhFdxsKcSGo4smTHM7yJmtSFQX0dujCNufburO0W7pbTEuUwVSGFbxN4nkydUFgik6DWIGC3lG/+NY+MtlYvaPNZ8s7j6GKcqjPsnPRI6ZcuD24E734n5Pr0X0m4j8ybDHWCJDrtec6fqOgJENxsII4+Zg6t+tcbDqP9YMAXDb3fveDMVrh9x6zxMbKWt3uhBi1oinunBGXSOVD7oXTX2C4s6EGEWEIkS3aHn+kGvh6BLoDfShzxBD1nc4VzPpHmy9QQZgT+1KBFwL0IVfdVrr//pKAnzSihyAsLyJ5xVs8oSjvVLCdpvyagIBtDp2S1r6dKq0/BpKgQOINzAqsuuYNzCboMU2nIBA4PFRC697yzodBfsah+Z3Xu7742rx9Net3oLQ6fKRasctcMzDo6T26Bhzno83nrBvnxXuCN2nBAkLrMoL7zgWF+BBT6hcBcl30yzW6z0T9jhRbry0C5Hotua4KSQeNUpChvxNW4K+58cXX1eAREh3KZuAx7ggUrN9kYl3XtmGjA5W7cEBPQBQv5/bkCDDgFCio0E3sSxTiHCM8rpuR0dStMZ0hsFaveegJZ1Vhz/dpjOWNz78mjdQtBJE6nGF3odNAUYZEmy9sQy43oJ/BN9ot6oZL9jpNCnFordO26rRyECEQBUNbQjQK+PBYwSpRu4ITaVj1CZLBqd4K3CTMpiaagDf51uo73e2Ki1WhzgmqG2FLQq3RqANksm912CDFhFrRLzu8+SOg9saX37BNmSPqiDZfUEHHRf66jUG+2nDyt1Zl7MTn9HvCClqK/xFoqFz3/8jxCaqLQEPmOqIA2NBewA0zrhtfeK3s+x7hT+1fdUFlfk8isG9nhesn1ls510GZBYO6xskKlGQoxE7jF8LfOjejaaxKd9dLLzTuE858cGdAPOVQwT4RzvCD2CzFunZAEcbMN/aLsAJFHhJtPlsu9Ai9C2HoQiODQM9yKsnQ1ULXdIXWVVfXnrAox+Lh4FYA53jrE4xoEog3iCgTWCkKZ3QrmCoxA64xmnG0OwHCytvtiouMfzMWB2KQ4NcMPxxEqoDyDcEbHBTovat+MpuYgHgZPbub2M4b9O0Lq0LTNU5yp/POMCtL0Qa+5BBFwylFauGNNp+zXNC5PgPcPQLPrS8H3a6aYD5A9k0T+UEyZ7SNoDp44SsEGizXdZSwmxVigVrBi6YVvBj2+MPl5hKfOeNDZ2/y6EsEGirXEd8f1jun4Hesx7WXOZPMOeLLbnh2aqV0JvgLgZzFyzRKxTATIg09b33ESGnSu6dx6cjQiGDOgAI7Zn9pHg6/6fAZtu6hiHKB70EY56yRLFmjcOxe+p0gxK018HU4+xQNI7dKoAtBwYaugNlnuDWsn/KyqRsuF5hlz9UN3fLVJx6+8k11N2QrUNYh0eaz5UKP0J2wDwV24UO0sqLdu40/PgIuOAVbhNuQdM70eJwnjKIMsHZoyDYoo4EFe+pqgfiDTinR8CbbPpgRcHrfMXOOeWu3P7h4k3MqmLYsVo9iO204tEMwNZI5fIi9XXG0G52Ub5QChd0Zts5mRMgW+JrZDUmqymfLuR13zvlKsJuP3WISCn5KRsUqXCjJ2z781CjtbuWZ5j8EGirX8bkLDaloRw8/FvaeDeto7/HoXwQaItexoMo5Axpp9JxWt0j5eM/bCMDVYKeGrIWCbCVdDQOhgp2I9+gMNQRBC7AWIGirZ41aESqYmdmpLm+2bnALrhOVxOovegMz9MgHHSpUj8K97K8Xm+LR5qvUVnkCdDIr+N52++7GfhAIgFBfUi+uF8ZKW/7EePNx+uGEA8K5CM0JrDM/nMHXPjrFhFEJXeiAa4QWWfvYMxpXcE2gGAi09nGkrQ1yw0AG7IG+5a0PTF44ua/RunP0DQ5WjlBB/OI9GvatYEOZo3ne2g2Cla9OdxCUQVkQe9Or7xhLdbT5QttzXhdl7zZvgblqyXbGUYaCbJ7hzfcrbdvtLM/zukOAXI8x13OCffLDjZwT93B5mB5bBJyY83s9uu//cCOAhVJF+heNFGsoMUp8ESjJr4g25TwP1wu4SVhdAL/LJQXuwQqwP8OmV982bqGhdRVpwIOt02aYhZzOe9s0DYawYkefcB+bmeTong+7vykLGReoO8xapcJt21X5XRKoGtEsQiNt4CZ0ik0aqs3EiNbraPMFKg452Tl3nuzRTdqcuovNAl1v15cLZN3jz1aKdGbzxOMYiA0xYcIE46zb6bN58WjXTAEkpaaULUpQ4kQjZVbfpOgiN+ibkHGfUKsyzPVYvAcXikiCaQlMV8D3Bq4SUEBdBXXrNBgWByLUCpTocPVjusLEMISvsg46phbcnO2jzefaH2ei9g1O/7CuYeEH2qwv2Xhk2Y5BkydPDvCsvvpi2403z9EueEWu2xFQPKL8TFSU8P4ZuV42RuR6MFfJ9WA86uoq7t/r+jsLfQQ71bn9nrs+p/4mw80BhkE3Y1toGcwqGB9h1VugN0SjkGNGDeus8LsPhTbUYGjbMHUjsID2CSHlsMAPcZfdBFG6oOtAwYeyHm5n32jzubVh0rQviJkMVxHgY9rS9upT7Pd6vbleGIuDvvFUR6q10heDqm9O+ItW0CcbGiViGdSt0yShUTPcyoCwBbqLYFUSbb6q6sHLQKEuVKR4BwFyPXgsYsb14Gp55QEEyPXgQSDXg/FImCv9na22v6wqpNUpg1n0aHQHJ6awALtZgZ15cG7q1hBs0QiMgMYQWEXmaPOFrUbxgXLvRakX1wsvAsE+EQEiQASIABEgAkSACBABJwJUlJ1o8JwIEAEiQASIABEgAkSACJQjQEWZVCACRIAIEAEiQASIABEgAi4IUFF2AYVJRIAIEAEiQASIABEgAkSAijI5QASIABEgAkSACBABIkAEXBCgouwCCpOIABEgAkSACBABIkAEiAAVZXKACBABIkAEiAARIAJEgAi4IEBF2QUUJhEBIkAEiAARIAJEgAgQASrK5AARIAJEgAgQASJABIgAEXBBgIqyCyhMIgJEgAgQASJABIgAESACVJTJASJABIgAESACRIAIEAEi4IIAFWUXUJhEBIgAESACRIAIEAEiQASoKJMDRIAIEAEiQASIABEgAkTABQEqyi6gMIkIEAEiQASIABEgAkSACFBRJgeIABEgAkSACBABIkAEiIALAlSUXUBhEhEgAkSACBABIkAEiAARoKJMDhABIkAEiAARIAJEgAgQARcEqCi7gMIkIkAEiAARIAJEgAgQASJARZkcIAJEgAgQASJABIgAESACLghQUXYBhUlEgAgQASJABIgAESACRICKMjlABIgAESACRIAIEAEiQARcEKCi7AIKk4gAESACRIAIEAEiQASIABVlcoAIEAEiQASIABEgAkSACLggkOqSVqukXX17S2Fm81rVwcLeRKA4vbFkbNommSt+8mYH49wrcj3OgNdTc+S9CLleT+SLQ7PkdxxAZhO+RiDminJex7a+BoSdj4wAxpeKchlG5HpkriTS3YbOe3I9kdhc+VkaOr8rI8IUIlCBQMwVZVv1mHOvsac8JggCc155KEGeJLaPQa7HFk+v1UbeV4wIuV6BRaKckd+JMpJ8jrpCoM4U5YzmmXXVZ9ZLBDyFALnuqeFgZ+oQAXK9DsFl1USACHgSAS7m8+SwsFNEgAgQASJABIgAESAC9Y0AFeX6HgG2TwSIABEgAkSACBABIuBJBOrM9cKTT8tOEQEiQASIABEgAkSgHAFGdElsKsQiqgsV5cTmCJ+OCBABIkAEiAARCIMAI7qEASaBkmsb1YWKcgKRgY9CBIgAESACRIAIVB8BRnSpPmZ+KBGLqC5UlP0w0uwjESACRIAIEAEiUGcIxCOiy97d2VJSXBx4htRGaZLRtFnguiYnq5YukKwflku/IaOkS88DalIFy1SBgK8V5aJ9hZK3d0/gEZOSkyU9o4mAfDWVvTnZsmjOx5KUlCyjTzhLj0k1rYrliEBMESDfYwonK/MgAuS4BweFXYoJAp+//4q8/uR9lepqnN5EDhp4mBxz5kXS48D+le5HSigpKZEn/vFnKcjPlbU/rZSJ198VKTvv1RAB3yrKxcVFMumy02V39o5Kj96+c3c57MiT5cjTf11tpXnep+/K28+UbazRu/8g6dR9v0r1M4EIxBsB8j3eiLO9eCNAjscbcbYXTwR2bN0UaC6jSTOBkgsFF3/ffjVTli+YIxf98a8ycNTRgXxVnSSrcRAWadTROD2jquwxu//LyqUy5d6bpbEaJm9+aGrM6vVqRb5VlIv27QsoySmpjaRRWprsKyyQ4qIi2bJhjbz3wqOyfOFcuXrSQ5LWOD1q/DOaNQ/kTUuPvlygUA1PJivpfv7uGznx/Mtk1HFn1LAWFktUBMj3RB1ZPpdFgBy3SPCYyAjAkPeX/75qHrGwIF8Wzf5YXnnsHtVd9pljn0EjdGa8adQQXHfvFNm9c7sa9XpHXaa2Gffu3iW7tm+pbTW+Ke9bRdmJ8G+uvU2GHH6cSdq45md58+n75ftv5ssvK7+VWe9NlWPPvtiZPeL58KNOlW69+0qLVm2kRWabiHljeXPbxnWSs3ObZO/YGstqWVcCIkC+J+Cg8pGCECDHg+DgRYIiACPeiGNOk/y8vaq3PCB7c3bJT98tkf5DRrs+cX7uHsnL3SstW7cTWJMh0FNiqavk7smRwvw81YHaSnJKims/qpsIl9aURqnVegGobht1mT8hFGUnQHCVuPSmf8mdV52liud2ndL4LKyijKmPHFVMG+vbm3WoB/m69jrQWWWtzmEl2aPuIUnJKUrutrWqyxbGFOXuXTvMh4U+1BaVhnkk3xvmuDekpybHG9JoN8xnPeCQoYEH37Vtc+D88b9fJ6uWLZQJ//cPWblknsz+4FV12SiWDl17Blwenrjrz/KDGgZPvOByOer038j6rFXyn5suN4r0lbf/R3oeeHCgPnty/42XygbNd8qFV8vYU84zs/Az3nxOln89JzBTDyUZiwNPv/gasf3bvC5LHr7td1JYkGerklsnnlR+niTX/O1RgcUcAqX+zcn/kRWLv5Lscutz245dZdCYY8zMeUqKf9RP//S0fCiiOeAtrfsB/WXZ/M9lp4N08Kt55I5rpLtajM+Y8AeBu8P2TetNlRf96U5jlUaeR//6B0lLayx3PPWuYDCf+fetpq6+g0bKxBv+WakLS7Wd5x6YZMr8bco043sEX+cvp78ja39cYYiNQulNmpq3R7hX2KmVlx/5h/FNguILAVm/+PhNc37IYUfIuVfeaM7xDz5MH059Ujas/kmw6AWLALr17iNnXvLHmCr3gQZ54gsEyHdfDBM7WQsEyPFagMeivkKgaYvMQH/3qIUZ1t1X/vfPIF0md3dOIA90B7hwIKIGBMpoaWmJWp5zZf5n71dSlKFIZ32/1ORt1a6DOT5w02XGmo0LWJJT1Z1157ZNZoHgI5OulRseeEE6duslReoegplvp8AgaaVEjXgQ6F0P/uVK2bFlg7mG8gzX2G2b1sn016bI6u+XydV3POybYAkJqShjZJLLo1U0c5AO0xsg3epVy43C7CSbjZ6BPAXlf6UlpSI684BBBhG/nTfTWKnhluGU+Z++Z8q06dDZJM/96A157fF/mfNGqnC3adNZcpTM+TplMvOdl4w/ERRzCKZanEQDmfBn7ukUiJUPX3lKpr30uLnEQgD0aevGtfLj8kXy7+snyhW3/FsOGnCYzc5jA0OAfG9gA94AH5ccb4CD3kAe+atP3gk8qVuINyieUKAvvPZ2gZ6BdVjhBIv6Dhk+VhZ+/pEs+eJTOefS/wtyoVg85xNTtEmzFtJvcJmLB/SkwWOOlXGnnC9tO3U19xFF48FbrjQ6EyzZv7riemNhvvuFGbJswVx57v7bTL67npsuqvEanStddRPIe88/YpTklm3ayxV/uU+6lM/Sf/nJ2/Lyf/8hP2hIu290tn/gyKNMfq//S0hFGaRaqVMRkM4ucQWtMnrYkSfJ8edeKluVdO279gg7VkPHnmAsuaWlpUq8GXLEyecG8kKx/m7Rl+Z6mOaD4G0Mlt6jz/itIWxqo0ZqAd4nUx+9y7zhLVTn/TMn/lGaZ7aWi6/7uxQW5suDN18hG9f8JEedcaEce854U09aWtliQkx3fDT1KZM27tQLzFQIpkVydm2Xx//2J/PW95ZOcVx///O+eUMzD8N/MUGAfI8JjKzEwwiQ4x4eHHatWgiUSqnAfRKBB2DsmjfjXeNSgUoO1lnkdp26VaovWV03L7/5Xul50CHmHlwvIsmwsScaRRmGOCilfQYOD2RfPLdMUUZ0DegmELfIFdBhoMjCKr1VLcFWoAwjDK8VKNxO2a5W5AWzPjRJZ+lst1WSkTDymNPlw5efNAsBF33+MRVlJ3B1fV6qvsYg3p7snbJm1XcmvBssxyDXWH1DcpP+Q8fIr6+5zSiWbTt2ccsSSANxe6grByzRUHKdivKy+bONGwR8hQeXLygceezpgj+ngJBwuQDpINvU5QOKMtLxl5Ja9s6CKcYmTSsibyAv3DHgl9S5x/7GZcT6JcOBH7Ge8Ya2YfWPqmj/rHl6owglgREg38n3BKa3eTRynBxPVI5v3bBW/nRO5cV6cG04/6qbXB97+NGnBJRk1wwhiQcOGCbNWrYyOtGiOdMDijKsxHB/gMAAGE6wKQoMeNYNJM8xux2ujE3fuPpneyptO3SRTWt/CVzjpKOuI0PEDNuPoJsevUgIi/JzD9yuPsK3B0EMiyuc0Hsc0C8o3V6cd9WN1bK+glRQlOHbg3iIrdt1NFWBhJADDh4imTrNEE7gupHu2IEnd2+FW0W4MjYdSjAEb2awLjulVduyfiBtu34AqCg70UnMc/K9bFzJ98TkN56KHCfHE5fdZU+GDdLw+92uczc5WA13MHqFW+BmFdZoMUE9cKXAJieI0XzuFTcYg5y1Jrdu10n26zsgUB2s219Mf0sWqz6zZf0a2ZOzU/2c1fW0BrJ1Y4VbyL+uuyhsDdanOmwGD91ICEXZ4onFcrD+YpX0MWddbFaG2nuhx6bNKxzmQ++5XQ8afYwJ3wLL7hKduoCLBPyaVy75ymQfOu7EoGJQbuHXs2rpQhPyDYpyTWWLvoFCvp75gfkLV0+uY5fCcHmYnjgIkO8Vu3ImzqjySZwIkOPkuJMPiXCO9UU2jnJdPs9Qdb+Aopy3d7eJmHHwsDGyeO4M0+SQI44PGAphPX5W/Y3hVgrBYr7e/Qeb4AObdJa6upZfuJlaCZ1Zt+k49upToag70714nhCKso1YUZcAw00Cfj7fLfpCt7iebhTlb+fNMn5GWLA3YMS4QPM2uoZ1/+jS6wB1s2hjwrUs+3p2IF+0JwhEDoGTf/cwFnJs29138Ihoq2Q+HyNAvus6APLdxwyuuuvkODleNUuYIxICmE2HtRquHovmfGxcPW0UCqfbxSoNCGCV5LMvvU7GnHhOIEbztJefMOuzIrUDy7N1B0U+G9QA52dd8qdqbfiGMl6UhFCU4wXsEHW/gKIMPx844cOyDOmvb2p2tSeu33n2IbNSFJbtK2/7T5BLxh/OrHCqR95QcZvuaN2+k06HrFZFfYScdvHvQ4vwmgjUCQLke53Ayko9hAA57qHBYFdijsDQI04QKLtYS4VoWZCu+x1kQr3Zxlb/sMycItysc/0VEgt0rZebYP2XFSy0ta6oSGtXHjUD50vVmAjrtd+lbGsXvz9FnPp/qIZcSSvfT33Oh69rZI15pmWsMLWCTUxW64JCCHb5c/othyMd8todcJzBxpEOscRb+vXnJkZzWSr/E4G6RYB8r1t8WXv9I0CO1/8YsAd1h4BVUgvycwU6C8RpTcZ10+YtcVClOFddRReYc/xDmNuZ774UuHaeOEPkwhoNAx/iOcONo+t+faT7/n1N9reffViyyhVxWx754JaKeM5+ESrK1RgpRKTAFysE8ZBBCpAMG5FYwc5+TZqVRa1YvnCuyYN7iJX8kMYkDCd2C0psX4m8JoqHhnaBjDruLHOEVfn1J+8zoeZMgv6DYo6de7BVN4UIxBIB8j2WaLIuLyJAjntxVNinWCFgInY5dubDAsIhhwdbePsMGhEwAGLXvfuunyCTLj9dNzm5WxB9xk0Qnq55y9bm1ttTHpRbJ5wkt0w4UTZoiFu4YSD8bYqGycWOfA/oLoB3XnW2PHTr1XLXteebfK89ca/8vOIbt6o9mUbXi2oOCxzkbYxAFMUiPxvazVY1QGMPzpn2mnk7u0W3d4Tz/pofvzP+zDZP6HH/gwcL/JfhOA+SImj4fv0GymW6HTec8PsPHa0788019X49c5qZOoFSjigY2Jsdq2KxFSWFCMQSAfI9lmiyLi8iQI57cVQSr082ZjHWV0QrqeVhY7E3QzipKs/IY08T617Rb/BIXawXvGFam/ad5ZLr/ymvPHa3bN+8wYTYhWsFFOhRx50pT999g1F6ne1jXdYFv/+LPP/gHYKN23Zn7zC+yDamMiJq3KD7Orzy2D2qEC8xeo1dFIhZ+X6DR0n/IaOdVXr63LeKMpREDCaiUERLPEsolHM6nztHqKo8Bx06TP1xOmmIuI2Ct7PDjjrFWdycIywdNjXBjn0I+P2L/mEx4EkXXGF291uhG5SEhoEZffxZ5g0LoVyweC93z74gt41Lb/yXmQaZ8dbzJjaiJT4a7NC1VyXfokqdYoKvESDfy/zoMIjku6+pHLbz5Dg5HpYcCXDj5F9faYIANG6cEfXT/O6O/xqXiIyQvRWcFVSVB5t8DB5znJmltn7KzvI4h1J866NvmK2nsR8FYjpjtgXyz+dnCBTjUMFeFH+bPE3D0m5QPaxIWqvCbcsgL6zO19z5iGkX+0bka1SuZi0zpZXqT/is+0mSbGcnTJhgguZ1+myeTarRceORZYvVjr3k1hqVr04hhFzD3uLOhXRVlc/P3aP+wKlBAxpapqo8cLnAjnwgjxuBbH0FebnmTapxRlPdf72LSUboFCjRGY6YyjY/jntzsiV751bd+aapEq+T81bgHHnwdtZIiZzZtn2lDUoCGWN8Mv2pO02N0XLEcmHy5MkBnsW4S9WuLlY8R8P2+eLBdbRHvseX78AcEg3vLRfI9TLMavqfHI8/x6Pht3M8E43r9nni9T3uxJLndY9Adfnt7JHlhm8tyngY59uL8+EinUejVFeVBwvv7BRDpLYa6zaPzu0bkdfuxBeuXNMWLdWNosy5vjZ5wpVlun8RIN/9O3bseXQIkOPR4cRcRIAIxA8Bf9m/44cLWyICRIAIEAEiQASIABFo4AhQUW7gBODjEwEiQASIABEgAkSACLgjQEXZHRemEgEiQASIABEgAkSACDRwBKgoN3AC8PGJABEgAkSACBABIkAE3BGgouyOC1OJABEgAkSACBABIkAEGjgCVJQbOAH4+ESACBABIkAEiAARIALuCFBRdseFqUSACBABIkAEiAARIAINHAEqyg2cAHx8IkAEiAARIAJEgAgQAXcEqCi748JUIkAEiAARIAJEgAgQgQaOABXlBk4APj4RIAJEgAgQASJABIiAOwK+3sLa/ZGYSgSIABEgAkSACBCB+COQuydHiouKJKNpM0ltlBZVB0pLSyV3d46UlBRrueZarlFU5ZgpPgh4WlEu2rdP8vbuluSUFGnavGXUiBQW5EtBXq6kpKZKk2Ytoi7HjESgPhEg3+sTfbYdLwTI83ghzXbijcCcD9+QVx+72zTbKK2xXHzd3+SQw46I2A0oyQ/ferX8uHyRydd1v4Pkz/c9G7EMb8YXAc8qyiXFxfLXK8+U7B1bDSK9+w2U3//1EaM0R4JoxaIv5Ym7/qxvdPtMtstuvlcOHnZ4pCK8RwTqHQHyvd6HgB2IAwLkeRxAZhP1hsC2TesCbe8rLJAPXnysSkV5+YI5ASUZhXdu3RSogyfeQMCzPsr79hUGlGRA9dN3S2Tp/M+rRO29Fx4NKMnITNJVCRkzeAAB8t0Dg8Au1DkC5HmdQ8wGPITAhtU/Stb3SyP2aPYHr0a8z5v1j4BnFWU3aL74+E235EAaCLnu5+8lKSkpkMYTIuBXBMh3v44c+10dBMjz6qDFvH5AoPv+faV1u06mq3M/Cq+3bNmwRlYumWfyHXbkyVE92t6cbMnP2xtVXptpT/bOsGVydm6Xgvw8m7XKI1xbUaY6kp+7R3Zu26w+2CXVKeaZvJ51vXAiNHD00bJk7gxDqO2b10ubDl2ctwPns6e9Zs4PGjhc1v/8g+zO3hG453ZSXFwku3ftkJat20WtXNsyLVq1leTk4PcMEAg+1agvWsnesU39qJsL/JmiERAtR91RGmc0NYsFoinDPP5CgHyvGC/yvQKLRDsjzytGlDyvwCIRzpKSkmX4MafKtJcel8VzP5GzLvmT6+/1XPVphnTpdaD0OPBgmf/Z+66PD0Xzzcn/kRWLv5Ls7VtMnrYdu8qgMcfIiedfJikpFarc43+/TlYtWyiXXP9P2ZOzS6a/PkU2rf3FlOnWu4+c/7u/SFdtb9nXs+UtrXPrxrVG/+nUY385/6qbtB/9K/UBus17zz8qKxZ9YfLDrxqLDuFPffrF1wjqdYrtw4T/+4fR22A1x0LFDl17ynhNe+CmyyRZDZpX3PqA9OpziLOoOcf99b/8ICddcIUcefqvK92Pd0IFuvFuuRrtDRp1tKxY+KW+9eTKl9PfkVMuvKpSabwxLVZlGjLmhLNl6iN3VcpjE+AT9OHUJ2XD6p+kSF08Gqc3MQN95iV/NASy+X5ZuVQeueMa6d67r0xU0r36+D3y3cIvTD/SGqfL2FPOl5N/c6XkKYlBuAWzppnVrlhAOOSI4+XMif8viMC2XpD4w5efNERA2SRVuNt27CKDRh8jJ5x7qVmEaPM6+3DGhD/I5Htvlu2b1pvbF/3pTtOfb7/6TA4aMFwuvekeWyxwxIfh2ftvV0U8Te586v0qfbwDBXlSbwiQ72WfOfK93igYl4bJc/I8LkSrp0aGH3WK/s4/IfBV/nrmB3LEyecG9QTK57xP3zNpY044SxXJ0qD79gKW2Af/cqXs2LLBJLXv3N3UCX/o6a9NkdXfL5Or73g4YOyDclyoFuK3pvxHNq752VZjjmt/WimPTLpGRh9/pnz86uTAPSi+G7JWyUO3XiV/+e+r0qpth8A9tP/oHdfK5nVZJg1BEqCYwyi4aukC+fcNE+XCa283Oo8tZPvwyv/+aSzJNh2RPaDriLaXp1bxr2a8U0lRhoL8y8pvTZG2nbraovV6DDaJ1mtXwjcORXbw4ceaDAAWVt1Q+XL628Y3uWWb9tJ/yOjQ24HrD195SvC2s+bHFdJIQ7d01rcovOlgxem/r58o338zP5AX0xsg3OpVy+W+GyaYN0Mo6xCQHG9qrz1xr9yv5ebNeNcoybiH8DB4g3rjqftxGSSfvPms/Pe235n2oCRnNGkmpWol3rphrSHu/TdeYj4EtpCzD1DarZKM+3l79wg+NOjL0vmzgghpy3/1ybsaAWSvsXIjegjF+wiQ72WfOfLd+1ytTQ/Jc/K8Nvzxelkom30GjTDd/OLjtyp1d+HnHxllE5+DIYcfX+m+TXjv+UeMkgzd5vp/P2cU2UlPvKOW4ZtNlh9UWf1GjWWhAiUZfbjqtv/Ifa/MNkY95NmrijSUZMxKw9h279TPzRH3oNRbKzeuIWgfSnJKaiO54Pe3yD0vzpS7X/xMrv37Y9I8s7Vgge6bTz9gIo2ZAo5/ULKbtsiUK265X25+aKqcd/VNAiMjZpMg33zxqTFWOorIIrXAQ5o0byH9Bo9y3qq3c18oykBn5DGnG5DgKrFs/uwgwDBQc8v9l0cde3pYqykG+6OpT5my4069QP7x7MdywwMvyG2PvWksyoiUAcsw3q6cAvJAQcUb4V/VKnvro29IG7wVqcxRdw/4GQ0YeZTc8shr8vdnPtI3pEPNPSjPmDKxsnn9ann/+f+Z+hHF4/bH3pJ/vjBD7npuuow58RyTDW98bs796APexg478iTT/pU6ZdF38AgZNu5EW70snP1R4BwnaPs7nSqBDBtbkc8k8J+nESDfyXdPEzRGnSPPyfMYUcmT1Vh+b1zzk1pJgxf1WVfRoeNOUKW1iWv/t6sVecGsD829s3TGGy4aVlB3pirPkEWff2yTA0e4gCJSGJR1xHM+9uzxAb/ptPQMo0APOfw44/aJ44GHDDVl16tl2QrcMmz7J5x3iYw4+lQT4xlup9BhLlZFGwI311D9A+nJySlyuUYe6zdklHG7sKHyhh9V5o8NY+FynaV3yuI5083l4NHHBs2uO/PE+9w3ijL8Zjp1723wsUqxBWv5wrkmugUGZaQqyuFkxpvPGesxrMiY1rUW1haZbWS0Tn1AsEo1dLoC6Uef+Vs5+9Lr1DLb1kwdHHfOBCQbwdvReI2X2K5TN2mmb0+n/vZ3Jh3K7Ra1FFvBW5wNKA7fnNbty5z94arxq8v/bIiHvJ+986ItEnTsP3SM/Pqa20z7fQePlDbtO5s6Dign+MJZwYryt/NmGSs7XDvgCkLxDwLkuwj57h++1rSn5Dl5XlPu+KEcQtM2a9nKdNW5aBVKM1wMIKOPL9M9zEXIv42rK1wn2uraLPgaO/86dt/PlHCGpbNVDFOjmtN1AUEOOvc6wNzuO2hkJZeHzj3L7u3eVbFQb52u9bIy6rgz7WnguP/BQwSWbsjmdasD6fZk+NGnSM+DKvsg79d3oK4162yyLSx/EcDF6lXfyfbNG0z6UA8Z93yjKAM5qwR/r6tEsajPin0zO/iwwyMupIMSDMFbGazLTsK1atvRVqfW44pYiDYRTuVOgRO7FfgVW6UbaV167m9vBa0OhbUYAqW1sb7RhcqwcSeZJKwodVqibb7zrrox4Idk03CElRmC54PftZXFc8qmMA48dJi0aNXGJvPoEwTId/LdJ1StVTfJc/K8VgTycGH489rfdSzqg7skZPa0V80RSmSXcgXVJIT827pxTSDlX9ddJHdde37Q30pd3AfZuzs7kC/SSbq6W4QTq5Nght7KNrUoQ+AiCiNgqED5bluu8MLNIlTgduEmKGejfCzTNWMWl0VzyizjmLF3W+TnVlc80nyxmM8CMXTsCfL2Mw8ZK6ld1Ldl/RqB4gyJ9GaG+9a6C8d6/IWT3HIyh7uP9EiES1OfIyul6v8MgTuHVe5heXYT4+RefmPnti1qQW8WlK1pc3fSwe3j1cf/ZfypsaDwtIt+bz44K78pw2WY4kbxHwLkO/nuP9ZWv8fkOXlefdb4p8TIY06Tz95+IbCoD4v2l3wxwzwAFvFFEuxiacW+UNpr57FXnwHOy5qdq/IaKoWF+SbJaQgMzWNDvlU3LC8s3tN0sSNcXpd8OUPdOk4z0c1Qv9dcRX2lKGMb6wEjxski9WHBor4TL7hM5nz4uhk3hEo5aMBhoWMYdG1368MbXPcD+gXdsxfw5YHvb23EjTB4S7Ptp4RZVGcJh7ZdOBu2S3gTHKjKMkLLLJr9sXH9+ParmcbJHo7zh444MmxZ3vAuAuS7+9iQ7+64+DWVPHcfOfLcHRe/pSIk2n59B8jPK74RLOrDAv3ioiINC9tCBmpEr0hi3ROQByHm8HseT7HuobBYF+TluvpS77Lh6qoZoQKuo/v3H2wCGyxQt9EOXXqKrQsvz14SXynKAG6E+iBDUcaiPiiF88vDq4w67gxXtwQn2Bj0Lbqgrs/AEXLaxb933qrzc0zBtFDnesRA3BFmi0rn1EW4WNHhOopQNFCUUQd2MQRGkEOGj3V18whXD9O9hQD57j4e5Ls7Ln5NJc/dR448d8fFb6kj1KoMRRmL+qa9lGW6j7Gtav+Edg7lc6muOYr3WqN2HStmvxfNnR4IqmDxR6hbu/txJBcSmz/0eJgu6kPEsZ/0D1Z3COJJh5t1Dy0fr2tf+SgDFKzMbK1vIpAXH/qbiWGMsCXDdTVmVWJJt/Trz3VRXfx3iGmnVm8IVnW6tW+Djbfv0qPKD1Dos/buPyiAy8x3XjIBx5HH+keF5ue1PxAg393HiXx3x8WvqeS5+8iR5+64+C0V7hYIxwbBgn7IKI1lXJV03a+PYJc/yNvPPixZPywLKgKDIaJkOSNVBGWo5cV+GtmiU/mCwbenPBTQK1At2nzxwTtNCwhTO2Bk9WeuMRMOKzlcUxF8AOJFV1GnorwanSxOb4yDZwVuDQhRArGEGzjqKFdH89CHGHVcmT8QrMqvP3mfxu+r8P+B4oq3o1nvTQ0tFrNrbIQCgdX3+QduN/GPcY240O8887C+VS3GpTgjapiEKP6VOceXLepDTGXEZkaMw4N0IV99iINHhlf10YcwbfqC57bv5LtFIvjoJb6T68FjU5Mr8twdNS/xHD0k193HqapUKIMIwWYFL4ZQLqsSjP+ZE/9oYhhjNvqBGy+VO686WzcGudos6rtlwolmLwdYq+tCEAbujPF/MGHasMHIw9ruLeNPlEmXnSb3/PFCnR3fKAg1d84V17turlZVnxAWD2usrMAXetCYY+1lvR6dXHe6XmRpr3oUpadJSn5BvXawqsYRg2/a1CeMMoi8VS3is/UdPGyMhpwaLcsXzDXxj7+eOU06dutltqJGFAxsFIJVmmNPOc8WiekRYeT2/+gN+VEV8oXqNoKdBLGAD4ozQslB+ulmKTX1z4H1GDsOWhk85rigaBw2PR5H8KhcsuyJR47ojy94bvEi3y0SwUev8J1cDx6Xml6R5+7IeYXn6B257j5GNjVVZ7chqY3KjjYdx1HHna47C79lrKeHn/wr5y1zbstgnZRT4N98w/3PyyuP3aPuG0sEoeBsODgoqdiUw7nJWqq6eUJsX5x1wQXU3HPpn82fEnIPcZivu2eyTP3f3bJWN2pDzGQI3EZ6adSOczUaV6irRKQ+mMKOf1ikaIMrIGydW3QNR/a4nTq5Hqooj41bL6poCG9SiP8Ly6gdXFskU3ebQYzVZfM/N6FVEPg6VMKR7tIb/yUz331JZrz1vGDb69WOqYwOXXsFbTNpBxvxmdEfpzhXgYb2D/lwHwv44BZiBXVcPelB+eiVp42iDgd5bFYCwQ462NDkyNN/E9RWpD7Yeu0RSrd1jkeaczMSmydex5KMwKKDrHi1GWU76I9neG77TL6XIeFHvpPrlsVVH8lz//IcPSfXI3P85N9cKUed8RvXRW/deveVe17SRfbqeuEWNQsz5YdqsIK0tMBvZ6AxLAi85s5HzOzzNt38LF8jczVrmSmt2nUyhr5ARj353R3/FewgnNG0uTPZnJ9/1U1qIb7Wtf1jzxmvG5+drWuaKqJ22QoQUvdPdz9lZuGhsyAgAZRjpx5k8+IYqQ/OfDhPd2y24qVoF06uBxRl/QLLgp9IXqf20njX7tBnifs1piru0W0Sw5HqkhvuNrGGw+1og13y9hUWKlmCQ6xhYI8640Lztzcn27yZNdK2Mtu2lyYhxMJGHnfrznnJuq95qDLcul1H0z8AE9oH/Bjc/cKnZmVraPvYI/2kCy43fzka2Hvn1s1KuK5mBawbyJH64JbffjjwwerWu49blrik2WkL8CouDUbZiNd4brtNvpch4Ue+k+uWxVUfyXP/8hw9J9cjcxy//YhmEU7A/0gSqoOE5oX+0EHXMEUS6Crh+gD9J9y9qn+NMrkAAAamSURBVPqONmGA7Nyjd6Tmzb1IfQgt/MX0t01SepOmgr0wvCJOrgcUZe1cFjpYXDFljst6lUikgu9MuAFHpzF9ETqFEfowTVu0VFeLlqHJQdfpGmg7nIQqyM58pu9VuHtjR0D8VSWR+uAsm71jm7qVzDFJ9f1mVpAZeJvNcvbRA+emP17iucWEfC9Dwm98J9ctg6M7kuf+5Dl6Ta5Hx3Hmig6BwoJ83SJ7msk8cOTR1Q5iEF0rNcvl5HpAUdbFbDPxRmG16JpVzVL1icC8T98NLHAcUs9xCAszy96qn3766Sn1iUlo2+R5KCL+vfYK38l1/3LIDz33Cs+BVSJzffbUB/1Ah4Tq45rVWeoZsNc8U+PSXPHSGDi5HlCUp0yZkjVhwoRZqiiPhSbtBfeLhGJEHB7GhpeDnzJcQ+pL9vQqC4On7c+qrz6Ea5c8D4eM/9K9wHdy3X+88VuPvcBzYJaoXM/YtE3yOraV/D3RbQPtN/54ub9NGjeSfv36SXp6ujTLaFxnY1DdABWhXA8oygBTLcpT1E95rFf8lL08wF7s2/G/mqi75+TJgQPqJyScxcROWYBPNs1LR/LcS6NR8754ge/kes3HjyWjQ8ALPEdPE5XrmSt+kua/rItuMJgrpgi019r2MzXmiKzeEtO6nZVVV1EO5XqQomynpfF2lbFxC63KTqR9cO6FzUXgumOnLMAnL8JGnntxVKrfp/rmO7le/TFjieojUN88R48TnevVVaSqP4os4RcE3Lju3HBEMC2t1rY78EAO07Nfno/99AACu/qWvR+CR+CTB7pUqQvkeSVImFADBMj1GoDGIr5EgFz35bCx0zVAwI3rQYoy6lRr2xQcYRW05mdcU4hAVQiAL9aarIv4JlWVvz7vk+f1ib7/2ybX/T+GfILoECDXo8OJufyPQDiuV1KUy61tE/DI2X2rjpfnf2j4BLFCwM5CqDXZ8CdW9dZFPeR5XaDacOok1xvOWDf0JyXXGzoDGs7zh+N6JUUZkJT7lq6Gr8b2QX0bDkp80hojAJ6UW5NneS0kXLiHIs/DIcP0SAiQ65HQ4b1EQoBcT6TR5LNEQiAS14MW89lKYG0bP378OLUM/gLlB1p2s2quCvVSPDz7XDzWDQLgh3W50Kgpk+qmldjXGgueo1fkeuzHxqs1kuuMNetVbsa6Xw2d67HGk/V5F4GquJ4UqevlyvJnyJO58meNhLE1UnZzb8uIgVKs8fAoiYkAVge3/3JJ4OHg07NjUD9zrUrykap8zgzc9MlJTXiORyPXfTLAMegmeN9Sw0iR6zEAk1V4DgF+r3tuSNihOCEQjQ4TUVFGPydOnDheFaDJOG+etT4qy3Jhy8D2xShG8RkCKQWFYXvsDKOT16md7OpTFuXCr0qyfdCa8BxlyXWLoD+PkbjufKLCVi3IdX6vOynhu/NIXOf3uu+Gkx2OAQLR6jBVKsroiyoRk1QRuh3nabtypM3iFTilNGAEHP482Khmgl/8kiMNGXkeCZ2Ge49cb7hj39CenFxvaCPecJ+3OlyPSlEGlM7paSjL8FnmNtcNj2SYpgjx5/Glu0W4kSPPwyHT8NLJ9YY35g31icn1hjryDe+5a8L1qBVlwKlKRE+1Hs7U0x64xh7p3MEPSCS+gFzY2hy7NpbLLJ1lmORHn2T7AOGO5Hk4ZBpGOrnOXVkbBtPLtqXm9/ruhjLcDfo5a/O9Xi1FGShDiUhOTh5n/ZbV76kkbWdOMhXmxOQgfHgKNPKJQ0GGq8UdXt9QpLajQZ7XFkH/lSfXy9ai8Dvdf9ytbo/JdXK9upzxa/5YcL3airIFq1yRwEI/47uMdCwISNu1W10yciQ5L99kpXuGRczbR8TMhhSlp0lJRnol5bi8989Mnjx5fPl5gziQ54k3zOS6+5iS6+64+DmVXHcfPXLdHRc/p9Yl12usKFtAywkHC/N4TRtr051H54paZzrPvYGAJViY3syCuw22fFbJCpMn4ZPJ88QYYnK96nEk16vGyA85yPWqR4lcrxojP+Soa67XWlF2gugg3ThN71l+z1V5Lr/Hg3cQWF3elSw9ZqlynJXo7hU1hZ48rylynilHrkc5FOR6lEB5Nxu5HuXYkOtRAuXdbHXG9aR4PDMIGI922EbNEGjIluKaIeZeijx3x8VLqeR6bEaDXI8NjnVZC7keG3TJ9djgWJe1kOt1iS7rJgJEgAgQASJABIgAESACRIAIEAEiQASIABEgAkSACBABIkAEiAARIAJEgAgQASJABIhArRD4/4Zu6fXV3y7tAAAAAElFTkSuQmCC;" parent="1" vertex="1">
          <mxGeometry x="50.5" y="130" width="714" height="145" as="geometry" />
        </mxCell>
        <mxCell id="lmZ7Z838884bCMlXKgRS-2" value="" style="shape=image;verticalLabelPosition=bottom;labelBackgroundColor=default;verticalAlign=top;aspect=fixed;imageAspect=0;image=data:image/png,iVBORw0KGgoAAAANSUhEUgAAAt8AAACRCAYAAAAbx9TxAAAAAXNSR0IArs4c6QAAAHhlWElmTU0AKgAAAAgABAEaAAUAAAABAAAAPgEbAAUAAAABAAAARgEoAAMAAAABAAIAAIdpAAQAAAABAAAATgAAAAAAAACWAAAAAQAAAJYAAAABAAOgAQADAAAAAQABAACgAgAEAAAAAQAAAt+gAwAEAAAAAQAAAJEAAAAALqwxRAAAAAlwSFlzAAAXEgAAFxIBZ5/SUgAAQABJREFUeAHtfQd8HNW1/tGqd8mSe5Ntmk2zDQabZtNrKAkESCiygfBS+aeS8JIAyUuBl4TkkZAEAhahBwKG0I1BBoMBAza4UVzkjqskq/f/+e7uXc3Ozq5mpdndmdU5v5807c4t3/1m9sy5555LJCIICAKCgCAgCAgCgoAgIAgIAglBIC0hpRgKqaysrPD5fHP4VEVPT08FtoE/3oi4HIFq1C8tLa2mu7u7uqqqSh3jnEgoAsLzUDw8eFSNOgvX++454XrfGLk8RTXqJ1zvu5eE631j5PIU1aifG7ieEOU7QNhKVrYrud3j0XiRFECgp2cLs/hV7tcqbk0NK+M1KdCqfjdBeN5v6Nx/o3A9pI+E6yFwpNaBcD2kP4XrIXCk1kESuR5X5ZtJO4e/MG7h3ppt7LHcz/dQRmsbpfOfr6WV99uNl2XfpQi0lxapmnXlZFNbSSG1l/iP1cleEt8y2JRw4blLCTuAagnXrcETrlvj4uWzwnXr3hOuW+Pi5bNu4npclG8mbUVA6b4aHQUlO6uugXJ37KJs3oqkBgJQwkHm5hHlvYp4QAmfP39+ZWq0MnIrhOeRsUm1K8J1eaenGqcjtUe4LlyPxI1UO59MrjuufM+bNw/uJfN1JxXWbKOCjVv1oWxTFAGQuG7yxF4lnGgT3IzYCl6dik0Wnqdir9prk3Bd3un2mOL9VMJ14br3WWyvBYnmerq9atlLNXfu3GpOeQNSw7Vk6LKVbPHej0ORFEfA19lFedzn6O+u3GxiIpek9fScNv2oo2qXL1++IpWaLzxPpd6MvS3CdXmnx84ab94hXBeue5O5sdc60Vx3TPkOKCTKt3vI8jVUsPXz2Fsvd3geAfjvw7XI19XFLinFcAq/cPr06WmsgFd7vnHcAOF5KvSiM20QrjuDo+TifgSE6+7vI6mhMwgkiuuOKN+skNRws4+E1bN47Xrx63aGA57NBV+Q4EJGWzu1lpeiHXOmTZs2YcWKFQs82yiuuPDcy70Xn7oL1+ODq+TqPgSE6+7rE6lRfBBIBNcHrHwHLIFK8S5bvlYil8SHC57MNbOxWSnhLSOHov5TvWwBF557koIJq7RwPWFQS0FJRkC4nuQOkOIThkA8uT4g5TugkChXk2FLU8qtN2Gdm+oFYQgHVnClgPf0HMQK+D6v+YALz1Odpc60T7juDI6Si/sREK67v4+khs4gEC+u91v5RrQHbpqaXAkfb1RQRBCwQgDc4NCTCEtYyBFQpk+dOnUBu6DUWaV12znhudt6xN31Ea67u3+kds4hIFx3DkvJyd0IxIPrvv42WYcThOItsbv7i+LguQ/hJhEBh5XwcYEY8J5ovPDcE93kqkoK113VHVKZOCIgXI8juJK1qxBwmuv9Ur55GL4KqMCdQBRvV/HD1ZUp7I33fjVWD3N1ZblywnO395B76ydcd2/fSM2cRUC47iyekpt7EXCS6zEr31jVj6FRK1fiS0BEELCLAFY6Lfl4g0ruduu38Nxur0o6KwSE61aoyLlUREC4noq9Km2yQsBJrsesfGulCS4EYvW26h45Fw2BrNr9BAKzzHaz9Vt4Hq0X5ZodBITrdlCSNKmAgHA9FXpR2mAHAae4HrPyzZVTVm+D+d1OfSWNIKAQgOJdWLNN7bOCW+liWITnLu4cL1RNuO6FXpI6OoGAcN0JFCUPLyDgFNdjUr4DkR+UrzcqICII9AcBfDkq6ek5pT/3x/se4Xm8ER48+QvXB09fD/aWCtcHOwMGT/ud4HpMyjdHfpgDePPY5UREEOgvAvhww2RdDn0y1o2uJ8Lz/vas3GdGQLhuRkSOUxUB4Xqq9qy0y4yAE1yPSfnmCsxBJYJaPw5EBIF+IKA/4FzqejIHTRKe96Nj5ZYwBITrYZDIiRRFQLieoh0rzQpDYKBct618ByyU46Hx409EEBgIAgbFds5A8nH6XuG504hKfsJ14cBgQUC4Plh6Wto5UK7bVr411KJ4ayRk6wQC7OKR5kQ+TuchPHcaUclPuC4cGCwICNcHS09LO/vL9Qy70Pl8vjlcSMLCC6ZlZFDW0DL4BfdWkcvvammlznr2F+Z9kX4gkJ5O2cOHUvbokermtu2fU/vO3dTT2dmPzPp/ix5B6crJHsfW5oqqqqqa/ufm3J2J5jlqLlx3rv/MOaUx33MnjCNse7q6qHnDJqLubnOyuB4L13vhzRxSQr6cnN4T/B5Hv3TWN1B3m4yo9gJjfy89P49yxo2hjKJCvqlHYdm2cxd11tbbz8ShlML1XiCF671YOLWXUVxEOWNGUXphPquGPuqor6e2HTs9yXXbyrdT4NnNZ8y1V/iVb4sbutvbqWntZ7Sv+k3q3N9gkUJOWSFQeOShNPSc05SyZ7yOH79dz75MjR+tMZ6O+z5e1Kx8o5wK/qvhv0EpwvX4dHvO2NE09AtnUFbZkGABm/86nzr27AseJ2pHuE6UP/kgGnHxFyJC3vb5LqpftpwaVqyKmEYu9CKQWT6Eyk+fQ7mTKlgRMRipOAkMZcBxz0uvUk9H4g0rg/29Llzv5akTe1nDyqn8zJMpt2JcWHaK66y77GYdJhmGlf5y3bbbCTewAq3Gj0giJLOsNGIxvqwsgiI55rorKYutuCJ9I1A0YxorImeGKd64E1bBYeefpTDtO6fUTpFongNN4bqznErLyqTys0+lUVdfGqJ4O1uK93NLNNezorzTgWb2iGE0jN9RQ887w/vgJqAFwCrvgAlhijeKhjJeNO1wKmPlXER9jFQAh0TpL8J1Z1lXzkZDK8UbpSiusz5YdsoJzhYa59xsK99xrkfU7Dsbm6jpk3XUumUb9RiGjNPzcmko/8iKREcgLTNDEVNbR7o7OqiBvxQb13wSvBHXSk+cGTxOxE56a7sqhl09KhJRnhfKEK4PvJdGffViKj56qqVSMvDc+5eDcD0ct5aazdT02QbqbGgMuQilMXfC+JBzchCOgC9bjRqqC3DZ6WpuDktUNP0IS4NLWEIHTwjXw8EUrodjEssZX2amSt7V3EL7eUSn7t0Pwt4bBYdPiSVLR9IOhOuudTsxItPCfpq7nn5BncoeOZxGXXUp+di6BcHQsi83h7rZFxwWRFjF8TLvYoUdfs3wb+5saqZmVt7NklFSxK4t5ZRekE+ddfXUzsPRXaYfAuM92jcXw32Q9l17lL+0MY3a9/mUywyGSuCb3r57r8qb2L3DSmCpQ7syS0vU5Q721Wvdup3M6e2mM5dRMOVghYs+v+el16hh+Up1CJeTwgBpUT7qAR8qkeQgIFz3495fruNu+AVCuts7+L3QEjxWJ+WfaxCAq5v2Sx520blUeNghwbrlHzyJWjZuIl92FmXgvYj3KL9v8X7PO2iiUiih0Oj79Y1p/CONuUL4wzwWvNM79tZGndMCX2m8q9MLC9TvRuvmbZb+5/CtxkhrZkkx4R3dvnuPSq/LNm/xO5HFf+l5edTV2kqYX9OJ9Q1MYjed6TbCh3o35wv3y5aaLepy6UmzaMjs44JJYVQBFvJOD0KSlB3huh/2/nK96dP11LhqLbulrQg+y3VL36Px37pGjdwj9wzW4/BB6pW5I55Qvo1PC14iLZu2UP6BE4OnAXoPv+DGfWOuOtexr5aa1m2kkmOmB9Ns/ceDwRcQJmBhyE7/SAcT8Q5eYruefSnspV449TA1hJfu91EO3oL67PjX09QV8D2Hr9fQc0+ndP4gMAqsErueXRj2EVB01JE05OQTLNNvve/hYD3spjOWqffzDzlQ71I3/yA1fLg6eNzw0dqg8o2TwEZe1EF4krojXA9/hozPRKTOwQgZJmbXvr6UCg49hMrPmBMpqZx3CQJ1S5eFKN8wiEDwLkUfQmqXvKNc4zJYSYbAav75o0+pfSjd6OdCtprrET51gf/hI2zvotdp/3sr9Cm1hbI9jF1c4LphFIwM7qt+i+rffk+d9uXmcrrTyfge1ekbV39Cu59fyEpwrzumypfd+PImhlvv6955n/a+XK1ut5tOl2Xe7njwcfMpqn/ngxDlOyyBnEg6AsL10C4wPhOhV3qPahe/1XsQ2IPOhWc1nd1mIfCKwHxAr4gn3E7MYPYw4Ebp6ebIJ77eCSeZQ0pDFG+khVM+BMNwI3lY2krxxvXcirE09mtXKWs4jiElJxyrlHWz4o1rsBTrD4FiVvYxociseCMdrB8jv3wBW20m4VAJJsrANzVS+qxyjvbCYjedSmzxT/9Y4RIimxgnJcB6YxT80Ii4BwHhem9f4BnSz0Tv2fC9nf9+lvY8/0pUq2T4XXImmQh0t5l+NLV7IUc00FLK72HjuwzWcAjc6sZ+7Ur1bjcr3riOUVK4Jxr9n31sRMGcIbPirdKzIl963AzsEkZgxl53haXijesFhx5Mo664BLtBwW+AleKNBLkclUSL3XQ6vZ1tRjEinvQKfvc6EB1MxDUICNdDu8L4TIReiX5Uws9ouiFyUusW9hYIvBOi3+mOq56zfMPPO9dgUYAlF5Zu7QpihhXXfRy2EJ0C95Qhp54YtIzgxdS46mPqamqifFaKobRDMLQ5ZM7xavYsrBN46WvBPU1rP+Uvrk7KP/gA7nz2u1N551KpYbivjZVcWN6yRw3nH4Ujgwp22SknUjMPoUBg0dE/FnhBQmHo6ermH4QKZeHR1hS76XQdzVttRcJ5+EwZxexmY/UhYEwv+4lDQLge+ZlIXC9ISYlAoGjqoSHFtO0MNQoYLwbn/fB7F1Jy3DHBdzeO29nNBO/YjKICymeXO/2OLZ4xlerfW65GE/GuzmA3Ei24p5VHVOF+glBm2lhTevwxQUMNztW+8bZyY1F+6WyogSgDDJfTxHNodCg0nW/d2++r3wu4RGL0VId0tZtO52N3ixFSo6BN3aZ3vvG67CceAeG69TPRV08UHDGF8iZNIB9/bOM51W66uA+uJnsXVveVhauue0L5hmKNFxdeWEW8NX7twEfW6msHL0qEnkG4JdyH2OB4SRvv3cu+zwhtBcGQ5li2hCAtpPDwyer+Qu5w7eyP81CQ93/wEXZpL1uJS2YdrVxVEH1FW8bhR43hUIRBbPr4M/Y7baWy02are+B/B4UeSi9+HLRA0W5hX8MeHjaBr+PehYv1JdvpgjeYduCrqMVsSdXn9RaRT0SSh4Bw3d4zkbwekpKdQqBgyiHqfZczbjRhXooWvLtbNtTow5BtK/tNf/7Ikyo2OMEqzj7NeAdrgS/2tnsfCvp9lrBboH734t2GcurefFdZyfU97Xv3EdwSe9g9BZLHRpXM0mK1j9FMLZgno4e/G1d/TBN++E3lY4rreeyup5RvFWtb34F5QbvV/B3M4TG6+/ljcvedrjdF33v4CMDIrhb1scC/ayLJR0C43tsHkZ6J3hTWewX8XFq5fiF1LT/TXnOX9YTynTNqBOHPLF08mWr3cwvNp9VxPVscdLxYtSgPn4XiqwVfSvUBJRrnoCA3rFwbtHJjciWUZG0NRxr4kWKmrRZM5tr36hvqEBNrjFJw2OTgIUJoGQUvdijfmAhEgVn9mBg6/tvXqPyh3BsnEtlNZywj4j5PBjULXtLaOkQW183p5Th+CAjX7T0T8esByTlRCEQKDVb3lvUPKd7Zn2N+jcGSm8GTH43Gkf3LPwoq3mhH/fsfqjk12qiAyZJwzVCjoYGG4n2rFW+c0pPz8f7HKKiWdFasYcDRwq/NoGBBFUgHK/JGQQhXRGFAGRgx1YYiu+mMeUXbx+jmCHZrTDO8v+Hj3rJxc7Tb5FqCEBCu9wId6ZnoTWG9h7kbkQQeBXBf2YE5IMYHM9INLjjvCeXbCifMfsUkGkQ1sZLWrdvCTusXJC50YNa5KfqIecEeDPsbYzAjIorRX9pYgDFvvOjL2L0lkugQUfU8+UZZ1gMvePi0lvLLvWTm0VT/7nLa+wpbv5lIdtNFKg8fDXqIVUeJCaZly5FR4IIj4i4EhOvhz4S7ekhq4wQCXRyVah+76u1nhdlK8M42u8kZjSO4x7yAEpTqLh5V1O8/jAKG3QMjiIUY3+m4nM8TM/FnJfqdrkKhsaJttEDDKo4/uEfufPI5ZaGzm86qLPO5NP79GHnZRYEVLv1XWzZv5d+P181J5dglCAjXw5+JvroGhta9ry3hD+d05nqR0p3gcaAF8zeKj5mmJh3rc27eekL5xrBg05pPleW5o7ZOWReUNThWZA1WAbu3Gi0kUa3CprytYq6iTLx09fBIx746QvQGrNyUZ4hrC+tFycyj2Be9mWAFspsuUptgoaeA6wkUfKPAuhO0eqN+XKZI8hAQrtt7JpLXQ1KyUwioET4eAcTIJN7rbTt28WqMka1bVuWmGSbaq+uhtgSrW8LiXhutxcYbrM5Heq/DvVALlAS0R00IM0xgh9I/gpXkLXfNV9Z5u+l0vlZbjNBC8YbLiRasFAq3R+1frs/LNnkICNftPRPRegh8RoSTLk4EnQihRjFqD1dkLXmTKkT51mA4sW3b9rmKZTrQvJQrR8B9BVYNzJI3Lr2r4nIbCkEHd7C1W7/Y4OCPkFZWPxAq77Gj1d2w0Gy+8x5DTpF3OzgG+I4Hn6BMdolBaERjqKyCKQcp5Rt3201nVZIaHQhETkEbMYNfD7PmcCx0o8BnUiR5CAjXB8b15PWclBwrArVsWDC618V6P9Lj/WyUrGFDeZ5N75oOsHRjBFMLrM9qBFOf4G0WuwViETezmPPe9cyLIX7b5vTG47q3lqnRS7zDS0+cxdZ2v1sKwuLmjB8TnHRvN50x7+A+G2mGc2SVXM5PCyaO7nj436zcm6LH6ASyTQoCwnViXcbeMxFLB7Xzh6ZXJdwB2KstsVHvjtre4UX4CRr999REN8MKSVC8oWTDgqEFLhvGBQyyWZEfc+0VavjDmC6TF+9BvG+zIIyfMRQUFgjSbi1QrmEJQdxYLfg4gNhNp+8zb+G2oEVZ1Y89Sh3CamKcrIQXdvNnvWn1PbL1HgKDleve6ymp8UAQgPIejH7CGSEKCUbztCBqlXFkD1GooFTDYqYFLiJqIR8+gXfiEF6meuz1V6sFcYx5F8+YFmY1Rx4wnOhRUSwKpMLJsmIMSx1WEt7x6JO6KLVFGXbThdxoOkD4RB3mFpcwgrDjoSf8PvFwJ9R/pvvk0JsIDFauw60K8xkQ7QTPjhbMczBH98GiWl6R3pZ4pcYDqOf+5atY2ZwRXBFpCK8GhmEK+ETn8ox74+SafW8sVSVhhjp8sPUQJJRVzLjFi1VP4PRxrMmGlWsIYak0OYZ/6TyeYPMZh73ap+LMwnqOEFZt23bQtqpHVd5wN4HVpZkXi2hlHz2QLJ9Xb9OCDwCI3XT6PvO2kV12EONW/wghzBZCcCE6i3HWPWbwG0cCzPnIsXcQGKxcRw/h2cOzBkF4UaOMrrxcfVRD+do2/5EwH2JjWtl3PwKILIWJ9drHGu8zrNOA6CKIXIWJ7FrwLlbGDY4hjq1eURPW6LHXX6X8xTGBE+FW4SeO+TZ4/0Ohh+AdDqW8iQ0UmPwFI0tuxTgVe3w7j14iSlUOT/oaeemFKtIVyoBCjOgpRulkg47ddMb7jPuIU45RUqOgveO/c53xlNpv2bSVtv/zsbDzcsJbCAxWrquQoYh0wn/d55ymVgzHs4nVZkPcgrk7oUt5RQaV8o3hRoSkgdKtxex2gfNYOa2RLRYQTOCBv1bx0VPVMf7pMFTBE7yDr9JaHlbReUPRxZBjmBgmOMKqgnSIMY4/o+CaDoNoN53xfuM+JikhRBasQBCUmc3uJ0aBRQjLFIukBgKDlevovewRw0M+Ko09quLYBxRyuCOYJ/AZ08q+NxDYx+82KLjBSZXcr+b3KVa+2/P8ouCE+X3VS5TVGBZoCEZCtXuhsdWIZoWl7vVcGbiPlARGDo3plJUZJwKLA+EjwDiqqNNiBWX4ZOtFePpKp+8zbzHBUxtTzNfMx7J2gxkR7x4PRq4bXajwnFpFvkOP7uMY/F6K7uNat5Pu1tbgE2LcD5407cBFRA8RwqrV3dZhSuE/hBL6+eNPh/kK4monK6m7X1gUXLJYZ7CHz+158VW2hvTWCdewgM9+jv3a8KE//GAwb4Oris4D2/Y9e1mhXhE8hSgm5ggrKh27oHz+xH841u0mldZuumDGFjtYHAJtMPsxok2NHAJr+/2PyWRLC9wSccrIb+N+pLKF65GQ8Z/Hc9yX4F1hfKn3lV6uDxwBZU0OZIORQzujbAgvqCXS0tGY07Llr1UqVCzyNQqOm9fX0Ja/368maOlrMJZsuRvntoS4oOB6O79/dy14XiXFBPnNnPd+toDD8mgWLG+N92fb9h3qUguvsgc3P/1bpNPjXhhxPn/8GWVRt5tO32/eYmJ8p83J8V0GDM35yHF8EBCuO8j1gF6GkSsraWVvAoQYrPWY8dDG3HB/c+fOnVvFe1eXfLyBcnfwEuXxFrbOwiqBFR+tJjhaFs9+dvDLxkvd6kVpvgfWA+Vzzco6JhraUXxgqYB/IBbDwUva/LLXZai8McmG6wRrCCZhqqgjOoFhi1nwsMLhowGKA2b0WonddFb3Gs/5uCzEu8UPW7+ixhgzG8B+3eRJ1DKCJ4Cmpc297777qgaQlWO3JpznqLlwPaz/nOJ6WMZJOiFc9wMPt7w0DhWmPnz4fWdH/NbpNPW+6jM9P0vKdYTfcVi4DBMsMUQdTVAnuBBijg3cRDrrrd+/eE7h2oF3NcLJQjGPlD9cCNXaD/D95t8K/L5Y/Y7ZTRet/m67Jlz394hwPZSZTnAdE6jxfONZjPZchZYcv6OBcN29bif8wtTLq9uGDtYs+OrZFCifbbxiWiwCS7WVtdqch8qbV1ezI3iBq5d4H4ntpusjG7XccJthoYq+0sv1OCMgXA8D2Cmuh2UsJ5KKgLJ4m6zTfVUophEKfpbgU40/u4I66fCvUe9B3uy6aI6WYnUPFAM7vy1201mVIefcjYBwPbR/nOA6RnxSJRyya91OQrtNjgQBQUAQEAQEAUFAEBAEBAHvIyDKt/f7UFogCAgCgoAgIAgIAoKAIOARBET59khHSTUFAUFAEBAEBAFBQBAQBLyPgCjf3u9DaYEgIAgIAoKAICAICAKCgEcQEOXbIx0l1RQEBAFBQBAQBAQBQUAQ8D4Conx7vw+lBYKAICAICAKCgCAgCAgCHkFAlG+PdJRUUxAQBAQBQUAQEAQEAUHA+wiI8u39PpQWCAKCgCAgCAgCgoAgIAh4BAFRvj3SUVJNQUAQEAQEAUFAEBAEBAHvIyDKt/f7UFogCAgCgoAgIAgIAoKAIOARBET59khHSTUFAUFAEBAEBAFBQBAQBLyPgCjf3u9DaYEgIAgIAoKAICAICAKCgEcQEOXbIx0l1RQEBAFBQBAQBAQBQUAQ8D4Conx7vw+lBYKAICAICAKCgCAgCAgCHkFAlG+PdJRUUxAQBAQBQUAQEAQEAUHA+wikRWrCvHnzKvlaRU9Pzxxs+a+M/wp8HZ2U1tXFuyKCwMAQ6M7MoJ70dGKO7U1LS2scWG6O3S08dwxKyUgjIFzXSMg21REQrqd6D0v7NAJ9cL2a9Zrq7u7umqqqqmp9j96GKd+VlZVz+IZbOMFsnUi2goAgIAgIAoKAICAICAKCgCAQMwL3z58/v9J4V4jyDWs3WyHnI0FOWdeu/BFduwrHte/MKe1qatmTMa2rLW1sRmMzZbS2G/OIut/SlEU7t5VGTSMXvY1AZ0e6asDoij2Um2+fG+0FedSdk0VZRd0rsgq7NrsBhVh4Ltx2Q4/Ftw795ba5Vl7muvDc3Jupd+wUz4GMl7lu7FnhvRGN1NwfKO+jcb1+Y9bwxu0Zwxo2ZU4IoLeJ9etKbQXP0JAaFe/C8R0bD7ig8W19DdvO1u7ONJ+PMju6KKO703gp6v72TWWkGxg1oVz0PAI9PcyPLPvc6Mnppq7cHsou7m7LGdLd5AYAYuG5cNsNPZaYOsTKbXOtvMx14bm5N1P3eKA8BzJe5rqxZ4X3RjRSe7+/vI/G9dzy1g2M2oaWPb6VNS8VzGzdmz6e0uh+9i6ZzQp4jVK++QC+3criXXF246LSAzt2OQW1XxnLpgumrqDjJ33mVLaSj4sQuHfJifTJzhEuqlFiqiLcTgzOySxlsHLbiLnw3IhGau4Lz8P7VXgfjkmqnUkE73PLu5sqzmx8e9ubeYcrK3gaVTGOc5TyzT7eOCBYvJ1UvJGnlvKCRsKfSOohUF7YyMp36rXLbouE23aR8l66wc5tY48Jz41opNa+8DxyfwrvI2Pj9SuJ4j0U8NHHN69ct6twWGeLbzZ7mtyiQw2qyZVmVxOvAyv1FwQEAUFAEBAEBAFBQBAQBJKJABTwoVPbVqEO7Gkyx4foJjjABEtsRQQBQUAQEAQEAUFAEBAEBAFBwDkEiie0ax+BiRk+n28Oa+GEyCbOFSE5DUYE2osKqGV4NmXV1lN6u/2Jl4MRK2mztxDoKMyj1vLg/PSQyiNWPUR4HwKLHHgQASueC7892JFSZVciAOs3DN08+XJsBiveFahlVlGXK6JNuBIxqVRMCPhf1qJ8xwSaJHY1Aj1pPrUgVLRKCu+joSPXvIBANJ4Lv73Qg1JHryBgbcrxSu2lnq5CICMzi+vT4ao6SWUEAScQKCobTmXj8iyzqt+1jdpbxXZhCY6c9BQCVjwXfnuqC6WyLkcgs6C7iS3fJMq3yzvKS9XzpQudvNRfUlf7CKSxa0l6RqblDemZfL7V8pKcFAQ8hYAVz4XfnupCqaxHENDRTjxSXammICAICAKCgCAgCAgCgoAg4F0ERPn2bt9JzQUBQUAQEAQEAUFAEBAEPIaAKN8J7LDPtqXT22szqLElgYVKUYJAAhAAp9/5OIM+3eqP/JGAIqUIQSDhCAjPEw65FOgCBFJdd0Gktq6sxLrNDnrle19DGt37Yg7NfymHA5/Hl+UX/6KYzv95KT22OCe+BUnugkAAgSWrMulPT+XS6k3xVYqffiuHvvCzUuZ3iWAvCCQcAeF5wiGXApOMgOguznaADqnpbK6Rc0usqh+5Hkm78shrOXTrAwWq/FlTOuiQsV1xq4vW7eOt5MetAZKxpxDo7ia68rYiamr10Ucb2uje7++PW/01p/U2bgVJxoKACQHhuQkQORwUCIju4u1uHvSW75J8rRIT5WX37nu7W6X2ggCRj5/u4gC/83OE28KJ1ERAeJ6a/Sqtio6A6C7R8XH71UFv+b785FY6YmIHDS/tpmEloqC4nbBSv9gQePm3tbSrzkeT4ziiE1uNJLUg4DwCwnPnMZUc3Y2A6C7u7p++ajfoLd+wmhw+ocuW4o3hzc/32Yeslv3Jm/oR/3dnrY9a2/vqOrkuCPSNAD4oD6voosAK6FFvqG9Ksz0ZuIu9s8DTWKW5DfelxXqbpBcEoiIgPI8Kj1xMQQREd/F2p8b+6+mC9t7zfA5VXFFOx91QSlCIjbJ0TSZNvKqMDp5bRjv2hjavkxWGY741RN378vtYjZFo2ScZKv2h15YRrmvB+QlXltOFNxcTlJJv3llIh1xTRkdcX0YHXF1G3/lLIUGRMAt8Xn//RB7N+OYQOnheOactp3P+u4RWrI8+yPDm6kxVFvI+/GtlVMFlz/xOKf3m0TzqMKzU7mTbzXWXY3cgAC6Cew+/mh1Woct+VaT4+/P788OuVb2co+4D37RcxT7feFbueiZXn1LbK35bpNK+9mEmPbM0i075YQkdxM/MJObrCd8tJZy3Esx6v+iWYpUOPD3sujKeM5FPHYZnx3wfnpOfVuXTLH5e0a7Dv1ZOB1aW0RdvLWZf9NDnwsm2m+shx+5CwMm+Fp67q2+lNtYIOPn7LbqLNcZeORuqnXqk1hXDu1nxTaN12zNouUmpfem9LLbe+ai20UevLPcr2LpZyz7JpJqd6ereMeV+baGhBdY+H+2u94Uo8jjf1JpGy9dl0pk/KaHHX8+hOs6TqIf2N/vo0eocuvYPRTrr4BZK+m2P5dOmXf7oEl38cfDep5l03k9L2GpuHXHizgW5ShF5a02Wyrsor1vVZcOODLrj3/l0NitT2hLuZNuDlZYdVyEwqqxLce+ZpaFRcfbzR2D1R1mKv0+9Ga6YP/1WtrpveEnvFyl4jWcFz4NR9u73qbS3/rNA8XhVTaaK9tPTk8bhAjPo8l8XM29DFeMP+Vk766YSenO1vw54FuDS8pdn8ujGfxQasw/ub9vjo9NvLKW7n8uj9fy8ZvAjgLkV9U0+WrIqS+X35JLetjjZ9mAlZMeVCDjZ18JzV3axVMqEgJO/36K7mMD12GHoL7JHKn/i4e3ByZELAxZsXfXFrJxoeeWD3n2c08fjh3XRlPFRTHU6A962tKcRlOArT2uhZX/eS+uq9tJZR/tN3q98kE0fb+lVqJevy6An3vArTEiz8u69tOqevfTjS5uo3WC9NmRP69iS+OtH8lnxSaOZk9vp/bu4jPv30qfz99K8M/0BwT/akMnhEP2Wy0S23VhP2U8cAmfP8PscYTTEOLqyhI+7u/0uGztr02lVTS/3Gvlj8Z2P/dbqs4+xGJKJUP01mzPY5aqb7v9RPW15eA89clMd5Wb1qHL+9mxeyF2/fSyPGvjDMzuzh/7J6bdy+gW31NGh4yOQm+/+1cP59Nm2DMrK6KE/fn0/bfznHtrAf8/8olaV29mVRj+rKgi6uySy7SGNk4OEI5DIvhaeJ7x7pUALBBL5+y26i0UHuOiUJ5XvHNapTz7Sr6AsNCjYu+vTQuIZv74yi9o7etHWlvCzZthXTnD3N77QTL+/vpHGs8W9iKNH3H5dI6Wl+Sdnrq7ptQ7eF1CQSwu66e//b39wEuf3Lm5mxaMheE9vjYjueDKPulihKs7vZsWnnsYO9VstSwp66LfXNiqFHOn/+h+/8p3othvrKvuJQUDzs60jjd5gDmsxfljinP6YxH71R5nsNpXGEU566PTp9icMDC/toqdvrScoQtmsu586rYMume2fqLByY69yv2mnjxYt91uob+SPybM4fRanP+7QDnry5jo1aRn1MMqGHT7+GPXf84NLmukrp7Spe+CrOHNyJ/3tBn/oQ1gtn1wS+GgNPJuJaLuxrrKfeASE50TC88TzLpklJvr3W3SXZPZ29LI9qXyjSWcGfqRXbswITvzyKyppShHIZEsb3EbeDlgDt7P/91q28kG0xUUd2Ph30+VNIalGDOmmocV+5RvD7lo+ZSs25Jxj2yi3dyRdnYPigYgqZvkw4PP6pRPaKD/Uy0Al/fJJ/g+FXXXpbHX0Wz0T2XZzfeU4/ghgVGYcj85AjB+Xi1nBhhx9kP+LUivDOLco4GI185AOKi20H7XnsjltNGlU6CjQ4RV+S7aR23Dx0gKuGgXlVZ4ePrMYrixEfs5i5Mgsx7PiPnKIv2z4kkMS2XZzfeQ4sQgksq+F54ntWyktMgKJ/P0W3SVyPyT7Sq/mmOyaxFg+rHuw8uHHXSse2jJ43rHtdCwrIRBtHdRpYJXW11SCfv4r4XwgbQbL+tbdfgViwohQZSZSEZicuYl90CETR1rfU2HIa1tgAmmy2x6pPXLeOQTODLo2+S3fW3f7lPsT/KV/fJn/Y3AZ+2TXNfqVW83vWD8srWqslff2Tn/eSLOFy4fA5WRkWfhHpLpo+gfLNwRzGMqKwj8I0jj78cP9vN++1/8cIH0y247yRRKHQDL7WnieuH6WknoRSPbvt+guvX2RzD3PKt/4MT/mYL/mq/2+tWVw9hHtdNo0/9C7Vr719oyj2m2FXeurU3rVkt6UmNgG8Vld7E0W3EN0Fe0Lnp4erpwgISZsatHZJrvtuj6yjR8CWomGUrqGl4bXH5azprTTcbwSq39SLk/A/DBL+X7rybx6KH9gNQvnYjOPIkHschtp4XMIwSTLSKJ92KGIa0lu23UtZJsIBJLb18LzRPSxlBGKQLJ/vw2v2mDFRHcJQpGwHc8q30DorKP9Cjb8XaGgQFGB7/SREzvptIDfK4bLMakR/t/qnhj9vdVNNv/BfxZitOJFuzWTR/JHBFxRtNXcnB7RIvzSE7QS4thtbQ9UUjYOITBzcofiMrKD68nilX6Xk9lHdChldk5gzgPmMegPyynjOtW8BIeqEJINXK0gUKgRv96OjAvMX9jH6RvDvU5UFnAHgxhHi9zWdlVB+RcXBNzW18LzuHSzZGpCwG2/36K7mDooAYdas0tAUc4Xoa18Ta0+Fd4PJZx4WIdaVvugMb1+s//DERfg/40h85On2p+MFmuNEUYIAks8XEqMAgXJ6EOrr2mlYwGHiTPHLEeaxxb7HcEPYL9cTNbQ4ra263rJ1hkEYC3WH5AL388OTrzEqA5ET6p8VSnf/gkGmhPO1CA0F+0egrM6Rr5OAderxwMTK/U5bDW34Rr29FvhExoQzWXrHr9Z3BgxxW1tN7ZJ9p1FwG19LTx3tn8lN2sE9LtadBf/ehXJ1Nuseyj+Zz2tfE8c2U0HjfFPDnthmV8BOSmgnAA67Xry/Lv+a1Bc8kwTIZ2E+Isn+CedIcb3Lx/KV4v2QAl/tDqb5v2+KBgmzljm3DP992xjJeQbHCNch5aDS8ovHsynpRz7G/LdLzUbb2MfcXe1PaRycuAIAnpI/l2OT4+43AgJOHmcf3TlFOVW1UN7+DyuQ845Jn4fltMP6Awq0798qIBjdvuVZqz4ipjgmqfGhsOqechY//N5Cy/EA2Vby2oeqcJCVZBJozrpvJmhkzjd1HZdZ9nGBwE39bXwPD59LLmGIuC232/RXUL7JxFHnla+AZAevtFgacsgjrXlUF/TL3l97PT2guPagh8Df346T60YeOR/DWElw78YDyZ7muX8WW10/KF+pQnh1iZdVa5WApzIW+QBOW16G118YqhygvNuajvqI+IsAqfwKA2i9mg5iePba0G0namTeuNrY8GSI9jdKl4Cn+zvfQkTPf0L68y6YYhaxfVoXskVi+XoRauM5SOk4K1XN6o2YFGdi24pIaxqOO3rQ+jkHwzhSZzpHOGnh27jkJpmv3A3td3YJtl3HgE39bXw3Pn+lRytEXDT77foLtZ9FM+znle+v8AWM3/UE6IDR8M616vgQqnFxDQIXE7OCESQMAKaFYigls6RU4yTviKd1/dqpUin85dB9J9f1NEpU9uUwoGVM+FqMv2ADnr2l3UcQ9mvPGUaJqChzMd/Vk/fv7iJhhR2q5jfWAmwlX1rR/MqnDdf2UgP/Xh/SN10HQbadp2PbN2JQEFuD51qcJPCZGGjnMshLbXgI85KNE/1VqfRx3qrz2OrOa23+tqlHJbwzm820IhAeECM8BTm9dC3Lmimf/20XiXDPAajnHxkB730m1o66sAOwjOGmN4Y5cnhhXxOPKydFt2+j0463BAyKHCzE2031kP23YuAE32teay3urX6WG/1eWw1v/VWXxOeayRkG08EBvr7rXkruks8eyl+eafNnTu3irO/euSslndGzGjdEKmohq0ZMzubfRMy97OVqsX6h97q3u2byqh+Xz5dc8ISOn7SZ1ZJBnwO1cFiBYWsrKQbFFtk3MHGQPh753KINiwiYiWIn53B0UbMsbkjnUceWLwHk8+KWPkwKu06fywHj2W6KziUGhbmgcCVBHWJdA/S7KpLU8oJ/GWx0E5fMtC295W/nev3vnkivbnuABo1g1cyLKsnuxxpLyqgLgY9t7zrnZwhXRG5Z6cOTqWJheeJ4DbclvYzP/GCLfCvsxTSVHAUaTTHQi7ygeZ/MXPQyNNI5/X9WMo+iz9YjfMM9DVsEfoQXMbcCp0vVtnEcxTpHjwz63ekKyv3ROa3+Vk15o/9gbbdnF9/jjW3J51aTkMPLrDMon73NmppqIvKey9zXXg+uHluh9/GB8PLXDe2IxG8H+jvdyQdJdJ5tE90l95e1u/3ch5VLi2sjUm3VVj2Q4dZ93TBzIZNmRNMdqreSnlpD0ozlGsrgSWuLyUW1jsriXQeabG6H5STSAIFxOwGgKF1KEHRZFhJD/v22ncfGGjbo9VFriUfASi20TgTjaOofST+RzqvWxxJmdfXxwQimehjbGHBjCZ4ZrTPerR0+tpA267zka37ERhoX0fic6TzGhHhuUZCtslAYKC/35He/5HOo42iuySjp8PL9LzbSXiT5IwgIAgIAoKAICAICAKCgCDgTgRE+XZnv0itBAFBQBAQBAQBQUAQEARSEAFRvlOwU6VJgoAgIAgIAoKAICAICALuRECUb3f2i9RKEBAEBAFBQBAQBAQBQSAFERDlOwU7VZokCAgCgoAgIAgIAoKAIOBOBET5dme/SK0EAUFAEBAEBAFBQBAQBFIQAVG+U7BTpUmCgCAgCAgCgoAgIAgIAu5EQJRvd/aL1EoQEAQEAUFAEBAEBAFBIAUREOU7BTtVmiQICAKCgCAgCAgCgoAg4E4EfGlpadWoWuP2jGHurKLUShAQBAQBQUAQEAQEAUFAEPA2Ai270pWuLZZvb/ej1F4QEAQEAUFAEBAEBAFBwAMIdLb48lHNjO7u7mq2fpPWxuNV93uXnEALlk+NV/aSbxIR2NtUkMTSk1+0cDv5fRCvGgx2bhtxFZ4b0UitfeF55P4U3kfGxutXEs37z5flTAxgtjijqqqqZu7cuYtZG5+9eVH+4eNObVrpJKD5hW1Uv08p+pTohjrZDsmrbwTyhhJ1dvedLlVSCLdTpSf7bkfRqJy+E6VoCuF5inasRbMGM8/NcAjvzYik7nHOkE6ijvi3r/bTrAkoBe7eGdjp6emp5ION9RsyKmrHZe4sPbBjF847IcVDGimvoDWYVVtpEfWk+6hwyAjKKSgKnpcdbyOQXZhB9bu3UWeDt9sRS+3N3DbfK1w3I+LNY3B7MEtfPAc2wnXvM2Sw89zcg5r37QV51J2T5ZjOwvoWdXZ2sgLGrgcZmeZiIx6zlwJ1dXVBceP7Bvc7KSJI/bjQ2rqTWhp64q58r3u6YGbr3vRh3P+vz58//xbVg7B+z5s371a2ft+8pTpvZltd26oRM1o39KMdlrdkZvFXRUC6crtZ+U6jrAIfOfGwg8Q9Pd2KjGlp9l3YOzs78NGhyA8yiwgC/UHAyG3z/U5zHfkL380oy3EiEIjGc5TvJNf9yklHQMmIVTmBUuMT5SQRpBgEZYD3PTms9Ob2OKKzgNurlr1B7W1+g2RhcSkdePjRiuvR4Nxfu5fWrVlOPayAQw44dBoVD+GhZpEBI9DaaxsecF6RMoDi3bApU1m9Oc3NSBf8fOKvqipWQiu6WnxX71iaeyzM4yOOaVEuKE5awiNVrj/nd+/YSpvXrVG3+nzpNGHyEVRig5CffvQeNdTvU/flsfV98rSZ/Sle7hEEEoqA8D2hcEthSUBAlJMkgC5FJgyBbjYUasUbhTbU17Jb7m4qKYsebG5bzWdBxRv3GfPAsYj7EGjZ48uv35g1fPeK7MP0JEt+v53Mxu5q1DbM5FtZWTmHz96fRmnjdHMycrubeD+b/zKou4fS+Outv9LjY+s0l+rzZVAa9gcgsF53seVbC/LLykI1I0s3D9t0dLQHE8DqnZU9eP05g0A4sNPd5R+FsMuRHoxUKAqktbHzU29HOlCXAWThCM9RvpNcR37Cd6DgPrHDe+G6vX6D8m1WLDIzs8iXnh41g472NsKwvJaMzExKTw/alvRp2fYDATv8NmabalzX7XFCZ7HiNwyHmVlZRghD9sFr8BvKmta8hN8hEA3oIFZ+GwvT3GClNkSH0cq2Ie1i7vtKeJnoc2HKNy6wAl7h8/nmIHEg4ezAVjaCgCAgCAgCgoAgIAgIAoKAIBAZgU18qZoNvNX33XdflTmZpfJtTgRlnM/9jjP5UtH6zZSzy++yYU5n53jPtClq8sJBx5xGwyom27klYpqXn6iipQsX0OiKA6ipYT/V7d1FU2edQhdUfsfynr27ttOff/YNdQ3pVix9lSeDFtIPf/+AZXqcbGlsIF9mBmVn50ZMY77Q3FBP6fwla3VP4/46ZWm3a23HF29bawsVFJWYi4l43NbaTK0tzVRYMoR8MfjBR8zQ5oXP3n2FdtasJbsc2X/AOGodOgS5/5A/9J6wWUy8kznCc1TSSa4jP+E7UAiXZPFd18QO74XrGq3oW1i9f/Ody1SiKUcfT2vee1Pt3/Crv1NJ+XDLm5+67w766J3FNIn9YHdu3kiNDXV0zuVfoxlzzrFM393dRXgP4/3II7yWacwn9T0F7KNrfqfiHd3a0kSFxepdZr7V8hjuBrl5+ZTBVn07AneFxrp9lJWTRzm5eXZucSyNHX4bC0s1ruv2OKGzGPl9yfU/oqer7uSRnhY68eyL6ZQLrzDCqPahS/zhx9fyCH8HXfaNm+jZB+6KyO/PVr5Hi599lHZu20ydPLqfxTrLqPGT6MxLr6ERYyYE896y/hN68E8387UD6MvX30jPPfJ3+mzl+6oe8Bw49tQv0MkXflXpEC8/Pp9WvlOtPAxy8wvp8GNOojO/PI89F8JHomo+XUWL//Mofb5lo3oe4IkwZOgIOpSf49nnXhYyemWswxmXzKXH7/5fqt39uarjl679vqrPx8uX0sQpU+nSr/8kWHe98+lHy+jf995BmTzC9b3b53N9+u9FESu/dR2w1dzg3RAdxmjhNqY37tsal0NGHI6wETf6OjopvZUt7P0U7bKCl0huoX2F0qo4mPxbWlqog+PbTT3xTHrhkbvpvSWv0AXzvke5+eGxp5c9XqXSj55wEI058DBa+upz5MvICqtHa3MjPTX/T7R2+dtUzwo9pHzEGJp2wml09mXXhQxn3v0rJsqq9+maH/1WvdAX/rtKkQ/3jJ10CF32zf+mMVweJlks4Dx379iiJleMZOJfxqQaf9ChSBoieECfffCvtPaDt1R6DFWB+GMmHkwXXP1tla/xBl2HuT/4NX284h164/nHeQi2i4aPqaBKPvfHn1zHPxhpdP3P/kgTDjnceKvax/VtGz/lH6zr6eQLvhJ23e6J9MAPiV2OpHX5h4n5o24Pz/6tsVtOPNM5xXPU0UmuIz/hO1Agcgvf/bUhssN74bpGK/rWl9mi3tFIdcTMU/i9+RYbH5rp/TdfpfOu+HrYzY2sxL63ZJFSTmaefhE9dtdv1P1p6Zlh7/XV7y2hFx/7B23ftF4pJ9n8G4R39EXXfFe9o3XmGz9eSXfd+m0aN2kyzeP3+uN3305r3vfXA0aT2eddRud+9b+ohX8n8E5/b/ELSjnB/KGjTjqTLpr3/0J+I3S++J148dF/qHct7oVyUj5iNE07/jQ668vXUrohgoWxDhfOvYHm/+4m2vv5NpXVVd/7parPR2+/RgcfeSxd+5PbdRHBLX5v/nnHzcqd4Zf38u9cH247wRstduzw23hbqnFdt8cJncXI77zCUpoy40Q2ID6tdJGzvvJfYbxZ8tICVrb3UzH7hB8x61R64h93WPL7xX/dq/Qf9ENuXgGVDhutdIe1Hy6jT1evoOt/+gfmyjGqm7pYn6ivq6Xm5o/oz7+4IcgrXIQ+9fKTD1Azbz/98F3atX2zukdfW/z8E9TFvi+XfO2HwfPYeeWpf6oPA+gqENShuamR/9bT1pr1tGb5u3TDr+9mPvrdgo112HTbj6mZ26ilrb2DykaOo/rqF2j50mqlz5WaPryXvb6Q6nkSKnS5/Bg+enUZxm2s/Dbeq7nRHx2m/58Lxhq4YP/YU85TSi2sEMuqnw+rERTad159Vp0/4awvhl3XJ2r37KTbvnslvf3KM0rxHjZqHKHj93y+lRaypf1vt96goqTo9LCgtLNlekHVn+iBP94cVLxxfcv6j+muW75Nzz38N7rn1z9QDwPOg6DbeQLFnT/7OqE8o+D4dz+4Wn3Bgvh4aeKF39LUwF+D79EfbpxH77/+kvEWpfSjDv/622/VfVC8ISA0Xu5coPqheHvRMyH34QBK98aPP1J+luUjx4RdlxPuRED4Lnx3JzOdqxWU4+knnq4yxLuri+eUmAWKC6yCUE4OPep48+XgMZQTfLRtXreWrWVZyuqH9+S61R/QH340jz5hRUMLrNh4n276bDX9/sa5tPzNV9QHAK7jdwQGlifu+R3dwfe9s+g/SvHGtebG/crw8SRb5MwC5eQvP/+mKg+KN5QTRK7YvX0Lwbp4x4+vUX69+j5jHfAhoBVvXG9hpQa/S6jLyncXh/2GIM3br/yH2rgdiIgxEMUbeYnED4FZp12gMm/gUY1V774RUhDmp7358lPq3HGnXxCxH3duraGXHrtXpZvzhcvp1/98mW7840P0878/pT4u8XzgI1ErxroQ6Erg1Unnfpl+wR9oP/vrk1QGfYFlyQtPKMX7SPYQ+OldT9Cv7n+JDXdHqGvgPAyUWnZu20TPPfg3lf8ktlTf/PcF9NuHFtFvHlhIJ7BFHwJdCEZBs6AO0FOOOfkcVf5/sYFw8vSZPGp1djDp+2+E6jsoew0bJiEzZvemC97gkZ2UUb6hIB8SiFry1ssLwuCHwgoFFi/0o9hKHkmeffAu2sfuKXiZ/+gPD9B//+VxuuWeZ9iCfZO65VNWgD9ki4NZdmzeoJT0r//8T/T7f72hLCNI08TKOV6u2bn5BIvF7x57XW1xDcR788UnsRsUlI+HKZ3jf17+rZ/S7Q9X020Pv0bf4WFXDJPigXzqvj/yi7U5eI/egeKez+4p1//0Drrpzsfo0m/8RCnuU48/VSX58K1XlcVHp8f2A/5hgeQVFtGU6cepffnnfgSE76SUDuG7+7k6kBqKcjJ4lZOB8MYr92Lke+S4Saq6WtHWdV/9/pvKFQMuHrNY+Y4ki556QI10w40EoyT6Y6uopIyODxgat29aR9BRzHLqRVcS3DyKh5QrQ90ZF88NJoHeUPn9/6GhI8cqt9cvXPlNdQ16yy7+aNQC/QYfshidx+j6kGEj1SWMBMFCDoUc8tozD6ut+d+hR59AX/n2z1X5k6fPorJho1QeCMEIeX9xqPINFzN8UGDkCCNNXpWUUb7RAfpFvWPzerbmhi7U+QZ/yUGOnnMWK8LWPnPwCX9v8Ysq3Rd5KBJDGlqQtw4H9MHrL+vTwS0sDN/6xV3qAwB+fKd/qZL9nfwkzMrJJSjlR514hhp2wfagALEQQkgLXFJ0+Wexn9ZM9r3CrGb4M4HAV7PyDkGYRPPXIM7jIf3aTb+jKUcdp1xO4J8FOfaUc9UWFpfVPHxqlOVLFqrD6cefHjLsaUwj++5EQPgufHcnM52rlSgnxD6zg1M5cY5F7s5JK9afsMvo3p1+1yLUWOsshx1zYtSY3lCsIdBXYLiDz7X+Ky0foa7h314evTcLXE2NAtdWLXCF0oo8zmFunRbEHdcCqzYEinA26zpm0XMvcI/RYq7TXfr1HyuvBX2st7CGQ9A+uIppWc6uxZCDjphBRaVl+rTntimlfB/G/lOYEAN5KzBcg30o4nCvgBx/ZmSXkx2ber8My4ePDhJYE3nEuIkqD7igmGUGE8XotsE+QDRqwoEq2eRps8J8rUdV+K811PWSeOsGfx1x03FnXGQugg447ChlkceFnVs3hV0/9tTzqOLgcJ/uiZOnUtnwUSr9+4GPCxxs+mwNP+zb1fmjPTx8oxowCP8J34Xvg4H2opwMTuVkMHAbbTx69llqpBv7Sxf6XUN3bdtMUMYh0XQWXNdWaLjbYrKy8e+vt/YGn4APdl+SwyP0kQQ+71p6Aq6tcGXRHwywkFuJcn0NXKjdsyssSX6EuX9weYHhEoJ5FZAmnoD68Yd+XGYwbl4WWxMuvdJATFjBV9ZrTz+k/PS+eI1/4uUbL/h9jaCYjg4ovVZt2r1jc/D0/37/quC+eQcEsCPRiKy/EOFGomUPW74h8Ae0im4Chb6clWhMAjX7iuM+DMFbCe475uRz6YVH76FVPOkIPoOYkPrBEr8FH35eVhMxrfKSc9zuQgkAAA9SSURBVO5BQPgufHcPG+NXEygnT99/pxpqhnKCiZf9VU6s5gPpmrtFORk5LjRYQDTlBFEi4J8O5eT8q76VUsqJ7pdU3+YXFtORM+fw7/FCwtyGsy+/jpa8+G/VbAR60BMlI+EAFwwIdJtxB06xTIbRePhSD0SgR5gF+osuPz3CpF5j/H2LLMxZBo+hIyEq3buvPUcfvPEywe3lo7erlest5sEdMfPkYFov7qSU8o0OmHXa+Ur5hl8SXrSYSb7irUWqb6JNtESCzg4/ibGvrS3YN8uEQ440n4r92IKF7e2tKh/jUI85Y01kqwfBnNZ4DMs8lG88KCuWLmKXlvNpxZt+XLw8acHYxsG4L3y37nXhuzUuXjwryol1r6W6cmLd6tQ8O5N9uqF8Y+IlFM13A8EhjjvjQkuXDCMK8LHexZMeD5k6k86/+lvGS3HfhwGoiF1uYRDcFwgVaC7UaCgsY4+CWASBBaB8I4/1a1YojHD/4cfOtnRxiSXvZKdNOeUb4fUmTj6SNqz9kF1PFqh4k1gFE87/U487NSre2jUDiWA1txuLO2qmMVzUExVgWceESivfdMQyhxhdXOwUgUkMBxw6Xc22f48nMAwfXaHiouNeWJZEvImA8N2634Tv1rh49awoJ9Y9l8rKiXWLU/Ms5oAN4d9oBHt4+M7/URMYEXQBMbf7kqEcpQzK98plr9N5V35jQDGv+yrL6vpQts5D+cb8MVinzTG3oTxDho0eHww1aJWP1TnE7te4VD/ziArrjHTaj9zqHq+cSymfbw36TLZ+QzDx8oVH7lH7eEnpGJPqhMU/kFjLSp5Rm2gZOmJssMgP3lwY3Nc7iBOrA9FHc5/R6c3bYwITL9dzeC245kDGH3SYms1sTivH3kFA+G7dV8J3a1y8eFYrJ6g7lBNMHo9FOcF9UE70yCGOEyVQTiBQTqzKd0I5Qf6pppygTYNFMJKNAAsQHSp46nGnWLqfmjE57gz/PDYo4P/+x+9DRvDBN+gNi599zHybY8cnnPUllRes0w9yuGWEwIQgNOgz9/+Z1q9ero6NkVTUCRv//C6z56iUCKuJ8JyI+nYwT7b0uthWvhmEGjS2Kyfb9W2GqwlC+0E0kY87M3wCo7khYyYeQuMOmKxOP/3PPxNWbDIKhoQQq9IYocR4faD7WM1pZGBSJ1a+wkOjBWU+/H/+aCeI8XrkrNj9neA/BWs+JkkgXA8kmZMW2ksKVR34BVGtdlzwz0s813AJ3zUSoVs38V24Hto3sR6JcmKNmBuVE+G6dV/1dRZRyRA+T0tfEy11usNmnKBWkcQx4nPfdPWZvB7INWpxvf/mfazq/dLj9+nkjm8RkhDBICDvs8vMjV85hX71zUvUdtGCB9T5KRyDv78j7GYr9/QTzgiJwqIKSNK/gXA9FreTGrSv0wPKNxRMhPPTEU9gNYHC2pfgRXbRvO/Sn3kxBAyj/JGXdYWPEpY1buTwfoh6ArmYY1f2x/LcV/kYrrmw8ga6+9ffVzHJ8dBgyWKEG9R+U5j9ezEvS5ueHkvX+UuGGwtmEOtJR/Atn3bC6X1Va7Bdr0GDvcBz3THCd41E6Fb4HoqHxVENznmF61BOXnjsHmX9Qr1jVU5W81L1UE6W8cp5I8ZOUMPjCM2GxXEwWX32eZciW8dFKScvPUnr2JgC5WQ5z7VBBAi80zE3CTJQ5QQrd2pxk3Ki6+SCbQ3qkGyuQ8eAgg0LrnFFU9QNegbCSq5693WlX+j42LimBboABBMojXLtj/+Xqv/zCC1a8CDrKrW0yWA4HM5Ly2MhHS0ZgZVUEZoY9TGKcb6ZuX5Ih+uYZIlRJy3I4xu3/B+99K/71PMFt1m9MibWo0DZJ1/w1ZCyotVB56u3eFa0yyzOGRfg0Wm8uI1dg3NRKzMCBNCENFbtuDMu4LA9C5SV98RzLzFeUvv6HjOJ4S9+4x0P0r/+fjv7ja9QK1vq0IJQfLEQjXElNU0iXRdjQZq8uizjNZ0+PfAw6WtYKOj7t8+nx/52G23h1dgQ0xsCl5kJHK3lyxwT0xzSJ1oddL56i4mkWvlGCESrqCo6bby3ehSlqqqqJt5lpUL+mjNWfBK+W/ewW/guXLfuH/NZUU78iOh3upWCZMbMbcqJcN3cQ73HMJTczovmYUTeKhraNTfepmJhW833Qi5YbbKjvV1FK+vN1a8Un3LhFYS/pv31Sm/J5LJKyodRHi9+YxQsXnMbr0DpYwOe1lH09SFDR6j64dhcBzybtz30Kgdt6AwrH8bAcy7/mvrbz+GTa3fvZD1ljJprp/M2bqPVwZhO72MBHwjmOI2ddIg+nfTtQLge+tkTpSmVlZVzGPzX0lvbaNjSFVFSRr+0a+ZU6srNpsNOOp9GHjiwqCFwn1CrVrJF18oSDN+jSCRHLZt5xcusrBxlWbaqNXyW9vDyq60cmq+guIRKedEc82QCELGttVmt7gRyGgVfiFgmGA+Z8YsSaYJ159iZ5gdA54HoK/iCRAgfKNzmPHS6aHXQafQW8c5v/96V6rDy+79iy/dp+tKAt6tff4a2f/YhlXy8gXJ37I6aH0i7a9ZUpNk0f/78iqiJE3jRKZ6jyk5yHfkFOSN8j/jMASejxJPvupy+eC9c10jZ20Z7b8OHFQt1QDGweud3drRbKifGkvtSTpAWZUA5gbJkFr26sFk5QTrU3Uo5MeZhRzlB+mh1MOaH/X/85kdqqXkoJ1jd2Enpi9/GslKR63WTJ1HLiHJHdBYjVrJvD4H6fXvoluvOV7rceV/9Op1+caW9G22mioXfxiwHyvVYLN81KBgF4g9KeLIFyi6imEQSqxenMa35i9B4Dft4uQ/nGbrRBIpzpDpAWY50ra+6o0xYOEeNnxSteHUtWh3MN7+18Gl1Kicvn7ByVrKkZeRQXXS13nHJtgb1cBPPNS59cUb4rpHq3bqB78L13v6wsxeNxzB+RHqnIm+MZJpHM81l5hcVs5tJsfl0yHEOr7UQSayUbp1W1b2PaVFY9ht/fUm0OhjvhXKymtdvgCQ7bKxw3dgzsu8EAu+8+p/g3L2jXBSZbaBct618wzVg7ty5mKU3uzMnyxXKtxMdO5jygFVGrxQ1ddapfUZ/iSc2bYHJlqxQVseznFjzFp7Hiph707uF78J193IkFWrmJuUklbm+ikd2130AFUgkkQgsfs6/6ufQYcNo9av/crzo1kZ7iyaaCx4o120r3yiYFaUqHvqe3TJyGGXXNZjrIscuRwDhE1ubm1Qtkz1pob3EP2LhpkgnuvuE5xoJb2/dwnfhurd55Pba61CFmJQGn91kSipyPbtuv3I7Aa79VdSS2SdeL/uASZOok917y8vL44p/Vu3+mKAaKNdjUr6hKGHomzX+Hq5lqINzTNWWxMlAYCyHUUQ0l+LSckLw+mSJYbhmsRsnW2qecxgh4XmySOJAuW7gu1e4Lu90BwiXpCzOvGQeL8rWQgcdmdzYx6nKdcxfilUxSxIVUrLYYbpVO+r0nuPbWN2oneB6TMq3HpLvzsmejUkIJWvXOw6CZBg/BBBu0U7IxfjVwJ9zQ4V/iVlYmONdVn/y1zxnv2/heX8AdMk9buC7V7gu73SXkLYf1TDHQe5HFo7ckspcj1U5cwRQycS1CDjB9d6I7jabyW4nlUiK4OKYlCYiCMSCAL4YA7zZdN9991XFcm8i0wrPE4l2apYlXE/NfpVWhSMgXA/HRM6kJgJOcT1m5TvgJnA/FKiGCb3LsacmzNIqpxHQX4xauXU6f6fyE547heTgzUe4Pnj7frC1XLg+2Hp88LbXKa7HrHwDclacbsG2vbSoW8/4xLGIIBANAbgqBaze8PWujpbWDdeE527oBW/WQbjuzX6TWseOgHA9dszkDm8i4CTX+6V8wyrI/rq3dmVn+ep7FSpvoim1TggC+EjDQgUQrdQmpOABFCI8HwB4g/hW4fog7vxB1nTh+iDr8EHcXKe5HtOESyPuHBGiihXwCrZkXl03eSKVLV9rvNznvsTM7BMizyWIFIYJpN03bYpqDyveJ3vB6q3BHyjPkY9wXaOZmlsj74XrEgs51Vhu5LexbYOd60YsZD+1EYgH1wcULpCX4q5gBbyaYR+fxbEw7Sjg9ayoN48Irm6Y2j02SFs3bOmK4CJMcDMJLCMPNBbzUvJzvAZLf3iONgrXvdbTA6tv2QdraO90/0cm5yRcHxiccrfLEJD3uss6RKqTEATipcMMSPlGywOKyUbsQwEvWbshqHjhnJW0FxdanZZzHkEgva09Yk2NIZmMX4t8gyeVEd3Q/vAc9wrXNYLe3EbjurFFWPVXj+7weeG6ERzZ9wQC0bgu73VPdKFU0mEE4qnDDFj5RltZMZnDm/vZCj4ODyks4MaHFWlEBhcC8SRtspAUnicLeXeXK1x3d/9I7ZxDQLjuHJaSk7sRiDfX051o/ooVK2qmTp26gJXvaT0ZGRUtQ0t7KDMjDZZwkcGFAIZo9h9YQQ0HjtcNv59dTS7UB17eCs+93HvO11247jymkqM7ERCuu7NfpFbOI5AorjuifKP5rJjUsQKO5edLWQGfinXvEYzc19VFmY3NziMkOboOgUaO+157+EHUWZCn6haYXPlH11V0ABUSng8AvBS6Vbgu7/QUonPUpgjXhetRCZJCFxPJdUfcTszYz5s3r5IVr0o+PxvX4IJSWLONfC2tlF3XgFMiKYIAvhLxkaUDzweatRj9j1B9KdJMy2YIzy1hSdmTwnV5p6csuU0NE64L102USNnDZHE9Lso3eon9Yyt8Pt8cVsJu4cOgDwIU8SxWwHN37EIyymhtF/9whYT7/4GkmFjWnZujFssxKdxoAJTuW7wUSnCgqAvPB4qgO+8Xrof3i3A9HJNUOCNcD+9F4Xo4Jqlwxk1cj5vyrTvKQOJKPqcs4fqacSsTNI1ouGsfhI0im/hadUDpromSLqUvCc9To3uF6333o3C9b4y8kEK43ncvCdf7xsgLKdzI9bgr38aOMRB5Dp+vCFzDNmgZD5yTjTsRgKJdgz/27a/BAjSp7lrSn24QnvcHNdfdI1y30SXCdRsguT+JcN1GHwnXbYDk/iSu4XqaW7ACsd1SF6lHKAKiYIfiMZAj4flA0Iv/vcJ15zAWrjuHZTxyEq47h6pw3Tks45GTcD0eqEqegoAgIAgIAoKAICAICAKCgCAgCAgCgoAgIAgIAoKAICAICAKCgCAgCAgCgoAgIAgIAoKAICAICAJJQOD/A6lgc4Fk3s/7AAAAAElFTkSuQmCC;" parent="1" vertex="1">
          <mxGeometry x="40" y="370" width="735" height="145" as="geometry" />
        </mxCell>
        <mxCell id="lmZ7Z838884bCMlXKgRS-3" value="&lt;font face=&quot;Times New Roman&quot; style=&quot;font-size: 30px;&quot;&gt;(a)&lt;/font&gt;" style="text;html=1;strokeColor=none;fillColor=none;align=center;verticalAlign=middle;whiteSpace=wrap;rounded=0;fontSize=30;" parent="1" vertex="1">
          <mxGeometry x="377.5" y="298" width="60" height="30" as="geometry" />
        </mxCell>
        <mxCell id="lmZ7Z838884bCMlXKgRS-5" value="&lt;font face=&quot;Times New Roman&quot; style=&quot;font-size: 30px;&quot;&gt;(b)&lt;/font&gt;" style="text;html=1;strokeColor=none;fillColor=none;align=center;verticalAlign=middle;whiteSpace=wrap;rounded=0;fontSize=30;" parent="1" vertex="1">
          <mxGeometry x="377.5" y="546" width="60" height="30" as="geometry" />
        </mxCell>
      </root>
    </mxGraphModel>
  </diagram>
</mxfile>
